<svg width="24" height="24" viewBox="0 0 24 24" fill="none" xmlns="http://www.w3.org/2000/svg">
  <path d="M12 19C11.9994 17.819 12.2979 16.6571 12.8676 15.6225C13.4373 14.588 14.2596 13.7145 15.2579 13.0836C16.2563 12.4526 17.3981 12.0847 18.577 12.0141C19.7559 11.9436 20.9335 12.1726 22 12.68V6C22 4.9 21.1 4 20 4H4C2.9 4 2 4.9 2 6V18C2 19.1 2.9 20 4 20H12.08C12.03 19.67 12 19.34 12 19ZM4 6L12 11L20 6V8L12 13L4 8V6ZM17.34 22L13.8 18.46L15.21 17.05L17.33 19.17L21.57 14.93L23 16.34L17.34 22Z" fill="black" />
</svg>
