<svg width="24" height="24" viewBox="0 0 24 24" fill="none" xmlns="http://www.w3.org/2000/svg">
  <path d="M0.1806 2.57203C0.332542 2.25124 0.572447 1.98019 0.872404 1.79041C1.17236 1.60063 1.52004 1.49992 1.87499 1.5H22.125C22.8516 1.5 23.5078 1.91719 23.8172 2.57203C24.1312 3.22688 24.0328 4.00172 23.5359 4.56234L15 15.0422V21C15 21.5672 14.6812 22.0875 14.1703 22.3406C13.6641 22.5938 13.0547 22.5422 12.6 22.2L9.59999 19.95C9.2203 19.6688 8.99999 19.2234 8.99999 18.75V15.0422L0.423834 4.56234C0.199066 4.28763 0.0568921 3.95476 0.0138425 3.60243C-0.0292071 3.2501 0.0286361 2.89278 0.180647 2.57203H0.1806Z" fill="black" />
</svg>
