<svg width="24" height="24" viewBox="0 0 24 24" fill="none" xmlns="http://www.w3.org/2000/svg">
  <path d="M0.160533 1.93803C0.295622 1.65736 0.508877 1.42021 0.775499 1.25416C1.04212 1.0881 1.35115 0.999966 1.66666 1H19.6667C20.3125 1 20.8958 1.3652 21.1708 1.93803C21.45 2.51102 21.3625 3.189 20.9208 3.67955L16.5167 9.02266C13.175 9.69941 10.6292 12.6074 10.6292 16.0938C10.6292 17.2176 10.9292 18.284 11.3958 19.2314C11.325 19.1986 11.2625 19.1576 11.2 19.1125L8.53333 17.1438C8.19583 16.8977 7.99999 16.508 7.99999 16.0938V12.8494L0.376742 3.67955C0.176948 3.43917 0.0505708 3.14791 0.0123045 2.83962C-0.0259618 2.53133 0.0254543 2.21869 0.160575 1.93803H0.160533ZM11.9625 16.0938C11.9625 12.833 14.6875 10.1875 18 10.1875C21.3125 10.1875 24 12.833 24 16.0938C24 19.3545 21.3125 22 18 22C14.6875 22 11.9625 19.3545 11.9625 16.0938ZM20.4708 14.5885C20.7333 14.3342 20.7333 13.9158 20.4708 13.6615C20.2125 13.4031 19.7875 13.4031 19.5292 13.6615L18 15.1668L16.4708 13.6615C16.2125 13.4031 15.7875 13.4031 15.5292 13.6615C15.2667 13.9158 15.2667 14.3342 15.5292 14.5885L17.0583 16.0938L15.5292 17.599C15.2667 17.8533 15.2667 18.2717 15.5292 18.526C15.7875 18.7844 16.2125 18.7844 16.4708 18.526L18 17.0207L19.5292 18.526C19.7875 18.7844 20.2125 18.7844 20.4708 18.526C20.7333 18.2717 20.7333 17.8533 20.4708 17.599L18.9417 16.0938L20.4708 14.5885Z" fill="black" />
</svg>
