<svg width="162" height="59" viewBox="0 0 162 59" fill="none" xmlns="http://www.w3.org/2000/svg">
<path d="M62.9297 38.1C63.3061 38.1038 63.682 38.0703 64.0518 38V43.419C63.4246 43.524 62.7893 43.5729 62.1534 43.565C58.6902 43.565 51.8128 42.54 51.8128 34.192V23.747H48.5934V18.816H51.9587V11.64H58.0077V18.816H63.6661V23.747H58.0077V33.413C58.0037 37.514 61.2221 38.1 62.9297 38.1ZM39.6097 33.413V23.747H45.2681V18.816H39.6097V11.64H33.5647V18.816H30.1984V23.747H33.4148V34.194C33.4148 42.542 40.2922 43.567 43.7563 43.567C44.3922 43.5749 45.0276 43.526 45.6548 43.421V38.002C45.285 38.0724 44.9091 38.1059 44.5327 38.102C42.8321 38.1 39.6097 37.514 39.6097 33.413ZM143.562 29.654C143.562 30.386 143.416 32.046 143.416 32.046H126.248C126.638 36.391 130.004 38.637 133.711 38.637C136.331 38.5149 138.844 37.5568 140.881 35.903L143.271 40.345C140.459 42.6705 136.919 43.9321 133.271 43.909C125.027 43.909 119.905 37.953 119.905 30.875C119.905 23.21 125.125 17.84 132.54 17.84C139.711 17.84 143.565 23.064 143.565 29.654H143.562ZM137.318 27.799C137.218 24.43 135.12 22.624 132.391 22.624C130.93 22.5762 129.505 23.083 128.401 24.0427C127.297 25.0024 126.597 26.3442 126.44 27.799H137.318ZM27.3657 30.875C27.3657 38.539 21.2707 43.909 13.7068 43.909C6.09703 43.909 0 38.539 0 30.875C0 23.259 6.09503 17.84 13.6579 17.84C21.2707 17.84 27.3687 23.259 27.3687 30.875H27.3657ZM21.0708 30.875C21 29.4278 20.5062 28.0332 19.6507 26.8642C18.7951 25.6953 17.6155 24.8035 16.2582 24.2993C14.9008 23.7952 13.4255 23.701 12.0151 24.0284C10.6048 24.3558 9.32146 25.0903 8.32443 26.141C7.32739 27.1916 6.66049 28.5121 6.40645 29.9386C6.15241 31.3651 6.32241 32.8348 6.89536 34.1655C7.46831 35.4962 8.41901 36.6293 9.62951 37.4241C10.84 38.219 12.257 38.6408 13.7048 38.637C14.7039 38.6309 15.6914 38.423 16.6082 38.0259C17.525 37.6287 18.3523 37.0504 19.0406 36.3257C19.7288 35.6009 20.2638 34.7446 20.6135 33.808C20.9633 32.8715 21.1205 31.8739 21.0758 30.875H21.0708ZM160.877 38.1C159.169 38.1 155.95 37.514 155.95 33.413V23.747H161.61V18.816H155.955V11.64H149.907V18.816H146.541V23.747H149.76V34.194C149.76 42.542 156.637 43.567 160.102 43.567C160.737 43.5749 161.373 43.526 162 43.421V38.002C161.631 38.0714 161.257 38.1042 160.882 38.1H160.877ZM104.585 25.358C104.585 23.796 106.146 23.112 107.755 23.112C109.976 23.0887 112.134 23.8492 113.85 25.26L116.147 20.669C116.147 20.669 113.416 17.838 107.806 17.838C102.441 17.838 98.2939 20.523 98.2939 25.161C98.2939 33.168 110.391 32.679 110.391 36.39C110.391 37.854 108.879 38.636 107.123 38.636C104.607 38.5755 102.198 37.6041 100.342 35.902L97.5126 40.247C100.144 42.6619 103.601 43.9725 107.171 43.908C113.073 43.908 116.683 40.588 116.683 36.439C116.687 28.434 104.589 28.869 104.589 25.358H104.585ZM94.6329 30.875C94.6329 38.539 88.5379 43.909 80.975 43.909C73.3652 43.909 67.2672 38.539 67.2672 30.875C67.2672 23.259 73.3622 17.84 80.9261 17.84C88.5399 17.84 94.6369 23.259 94.6369 30.875H94.6329ZM88.338 30.875C88.2672 29.4276 87.7733 28.0329 86.9176 26.8638C86.0619 25.6948 84.882 24.803 83.5244 24.299C82.1669 23.795 80.6913 23.701 79.2808 24.0287C77.8704 24.3565 76.5871 25.0914 75.5902 26.1424C74.5934 27.1935 73.9268 28.5143 73.6732 29.9411C73.4196 31.3678 73.5902 32.8377 74.1638 34.1683C74.7373 35.4989 75.6886 36.6317 76.8996 37.4261C78.1106 38.2205 79.5281 38.6415 80.976 38.637C81.9749 38.6306 82.9622 38.4225 83.8788 38.0253C84.7954 37.628 85.6224 37.0497 86.3105 36.325C86.9985 35.6003 87.5333 34.744 87.8829 33.8076C88.2325 32.8711 88.3897 31.8737 88.345 30.875H88.338Z" fill="#1A1A1A"/>
<path d="M105.419 6.98599C92.3766 6.93345 79.562 10.4078 68.3294 17.042C76.7775 6.69599 90.2465 0 105.419 0C120.592 0 134.06 6.69999 142.509 17.042C131.276 10.4079 118.462 6.9335 105.419 6.98599ZM31.8721 58.243H39.7207V56.972H33.3359V53.781H39.7207V52.51H33.3359V49.65H39.7207V48.379H31.8721V58.243ZM56.7148 56.226H56.6868L50.351 48.379H48.6524V58.244H50.1152V50.396H50.1432L56.479 58.244H58.1776V48.379H56.7148V56.226ZM67.1064 58.243H74.955V56.972H68.5702V53.781H74.955V52.51H68.5702V49.65H74.955V48.379H67.1064V58.243ZM91.0349 53.969L92.6236 58.243H91.1608L89.6889 54.281C89.601 54.281 89.5131 54.291 89.4222 54.291H85.3525V58.242H83.8897V48.377H89.3253C91.4925 48.377 92.6226 49.372 92.6226 51.21C92.6652 51.7759 92.537 52.3415 92.2546 52.8336C91.9722 53.3257 91.5487 53.7216 91.0389 53.97L91.0349 53.969ZM91.1598 51.238C91.176 51.0179 91.1431 50.797 91.0637 50.5912C90.9842 50.3853 90.8601 50.1997 90.7003 50.0477C90.5405 49.8957 90.3489 49.7811 90.1395 49.7121C89.93 49.6432 89.7079 49.6216 89.4891 49.649H85.3505V53.02H89.2263C90.6812 53.021 91.1638 52.231 91.1638 51.239L91.1598 51.238ZM107.313 54.194H110.543C110.454 55.0838 110.015 55.9019 109.325 56.469C108.634 57.0362 107.746 57.3062 106.857 57.22C106.338 57.2698 105.815 57.2038 105.325 57.0266C104.834 56.8493 104.39 56.5654 104.022 56.1952C103.655 55.825 103.375 55.3779 103.201 54.886C103.028 54.3941 102.966 53.8699 103.019 53.351C103.019 51.251 104.179 49.4 106.788 49.4C108.665 49.4 109.674 50.1 110.129 51.486H111.675C111.054 48.778 108.734 48.129 106.719 48.129C104.165 48.129 101.556 49.663 101.556 53.476C101.523 54.1601 101.637 54.8434 101.889 55.48C102.142 56.1166 102.527 56.6918 103.02 57.1668C103.513 57.6419 104.102 58.0058 104.747 58.2342C105.393 58.4626 106.079 58.5502 106.761 58.491C107.492 58.5066 108.219 58.3704 108.895 58.091C109.544 57.8116 110.118 57.3842 110.572 56.843V58.243H111.842V52.924H107.314L107.313 54.194ZM125.078 52.868L121.862 48.378H119.998L124.32 54.178V58.24H125.784V54.109L130.132 48.375H128.351L125.078 52.868Z" fill="#1A1A1A"/>
</svg>
