<svg width="48" height="48" viewBox="0 0 48 48" fill="none" xmlns="http://www.w3.org/2000/svg">
  <path d="M47.4087 10.5245C47.3066 9.87557 47.0096 9.27305 46.5571 8.7968C46.1047 8.32056 45.5182 7.99308 44.8754 7.8578L37.0487 6.1378C36.2094 5.95475 35.3406 5.95406 34.501 6.13578C33.6614 6.31751 32.8706 6.6774 32.1821 7.19113L9.04872 24.0445L2.56872 23.7778C2.0478 23.7592 1.53426 23.9051 1.10102 24.1949C0.667783 24.4848 0.336882 24.9038 0.155317 25.3924C-0.0262486 25.881 -0.0492468 26.4144 0.0895887 26.9168C0.228424 27.4192 0.522034 27.8651 0.928716 28.1911L7.59538 33.4311C8.39538 34.4045 8.92872 34.2178 22.1687 27.0045L23.4087 39.5645C23.4293 39.9071 23.5468 40.2368 23.7474 40.5153C23.9481 40.7939 24.2236 41.0097 24.5421 41.1378C24.7712 41.2283 25.0157 41.2736 25.2621 41.2711C25.7579 41.256 26.2316 41.0618 26.5954 40.7245L29.782 37.8178C30.0994 37.5238 30.3143 37.136 30.3954 36.7111L33.3154 20.8445C38.0754 18.1778 42.5821 15.6711 45.7954 13.8445C46.3703 13.5211 46.8328 13.0299 47.1211 12.4367C47.4094 11.8434 47.5097 11.1763 47.4087 10.5245V10.5245ZM44.4754 11.5245C41.1421 13.4178 36.4754 16.0711 31.462 18.8178L30.9154 19.1245L27.8087 36.0178L25.8487 37.8045L24.3821 22.7378L22.6087 23.6445C13.0487 28.9778 9.86205 30.5245 8.76872 31.0045L3.03538 26.4578L9.80872 26.7511L33.8087 9.3378C34.186 9.05577 34.6185 8.85654 35.078 8.75315C35.5375 8.64975 36.0137 8.64453 36.4754 8.7378L44.2754 10.4178C44.3956 10.4396 44.5057 10.4992 44.5896 10.5879C44.6736 10.6767 44.727 10.7899 44.7421 10.9111C44.7695 11.0284 44.7584 11.1515 44.7103 11.262C44.6623 11.3725 44.5799 11.4645 44.4754 11.5245V11.5245Z" fill="white" />
  <path d="M9.04879 16.3645L13.7955 17.6978L15.9821 16.1112L10.6488 14.5645L13.0488 13.0978L20.3421 12.8845L23.4088 10.6578L13.0488 10.9778C12.7222 10.9602 12.3976 11.039 12.1155 11.2045L8.60879 13.2445C8.31888 13.4162 8.08629 13.67 7.94035 13.9737C7.79441 14.2774 7.74164 14.6175 7.7887 14.9512C7.83575 15.2848 7.98052 15.5971 8.20477 15.8486C8.42901 16.1001 8.72269 16.2796 9.04879 16.3645V16.3645Z" fill="white" />
</svg>
