<svg width="845" height="248" viewBox="0 0 845 248" fill="none" xmlns="http://www.w3.org/2000/svg">
<path d="M208.054 90.208L207.325 92.0705L207.341 92.0768L207.358 92.0828L208.054 90.208ZM192.566 80.48L191.18 81.9222L191.187 81.9289L191.194 81.9356L192.566 80.48ZM182.326 65.76L180.485 66.5411L180.49 66.5529L180.495 66.5645L182.326 65.76ZM182.326 28.64L180.495 27.8354L180.49 27.8471L180.485 27.8589L182.326 28.64ZM192.694 13.92L194.066 15.3756L192.694 13.92ZM208.31 4.31999L209.006 6.19484L209.018 6.19049L209.03 6.186L208.31 4.31999ZM249.398 4.83199L248.625 6.67669L248.634 6.68033L249.398 4.83199ZM265.526 16.352L266.883 17.8216L268.305 16.5086L267.039 15.0441L265.526 16.352ZM252.214 28.64L250.764 30.0175L252.122 31.4468L253.571 30.1096L252.214 28.64ZM241.59 21.088L240.778 22.9156L240.795 22.9232L240.812 22.9305L241.59 21.088ZM207.798 26.464L206.407 25.0268L206.395 25.0382L206.384 25.0498L207.798 26.464ZM201.782 35.552L199.935 34.786L199.926 34.8054L199.919 34.8249L201.782 35.552ZM201.782 58.72L199.919 59.4471L199.926 59.4666L199.935 59.486L201.782 58.72ZM207.798 67.936L206.361 69.3268L206.384 69.3504L206.407 69.3732L207.798 67.936ZM217.014 73.824L216.287 75.6872L216.294 75.6901L216.302 75.693L217.014 73.824ZM240.694 73.952L241.326 75.8494L241.339 75.8453L241.351 75.841L240.694 73.952ZM252.086 67.168L253.658 65.9318L252.366 64.2885L250.782 65.652L252.086 67.168ZM263.862 82.144L265.066 83.7406L266.695 82.5118L265.434 80.9078L263.862 82.144ZM246.838 90.592L246.259 88.6777L246.252 88.6799L246.838 90.592ZM244.918 79.456H242.918V81.1922L244.637 81.4362L244.918 79.456ZM244.918 45.792V43.792H242.918V45.792H244.918ZM263.862 45.792H265.862V43.792H263.862V45.792ZM263.862 82.144L263.581 84.1242L265.862 84.4478V82.144H263.862ZM227.638 91.536C220.767 91.536 214.477 90.4603 208.75 88.3332L207.358 92.0828C213.577 94.393 220.344 95.536 227.638 95.536V91.536ZM208.783 88.3455C203.124 86.1313 198.182 83.0237 193.938 79.0244L191.194 81.9356C195.825 86.2989 201.208 89.6767 207.325 92.0705L208.783 88.3455ZM193.952 79.0378C189.792 75.0414 186.528 70.3525 184.157 64.9555L180.495 66.5645C183.073 72.4315 186.636 77.556 191.18 81.9222L193.952 79.0378ZM184.167 64.9789C181.893 59.6181 180.742 53.7004 180.742 47.2H176.742C176.742 54.1822 177.98 60.6379 180.485 66.5411L184.167 64.9789ZM180.742 47.2C180.742 40.6996 181.893 34.7819 184.167 29.4211L180.485 27.8589C177.98 33.7621 176.742 40.2178 176.742 47.2H180.742ZM184.157 29.4445C186.525 24.0559 189.825 19.3712 194.066 15.3756L191.322 12.4644C186.688 16.8314 183.077 21.9601 180.495 27.8354L184.157 29.4445ZM194.066 15.3756C198.299 11.386 203.272 8.32462 209.006 6.19484L207.614 2.44514C201.401 4.7527 195.963 8.09131 191.322 12.4644L194.066 15.3756ZM209.03 6.186C214.748 3.98053 221.071 2.864 228.022 2.864V-1.136C220.637 -1.136 213.819 0.0514584 207.59 2.45399L209.03 6.186ZM228.022 2.864C235.734 2.864 242.591 4.14886 248.625 6.67667L250.171 2.98732C243.576 0.224468 236.182 -1.136 228.022 -1.136V2.864ZM248.634 6.68033C254.758 9.21143 259.873 12.8711 264.013 17.6599L267.039 15.0441C262.475 9.7636 256.838 5.74323 250.162 2.98366L248.634 6.68033ZM264.169 14.8824L250.857 27.1704L253.571 30.1096L266.883 17.8216L264.169 14.8824ZM253.664 27.2625C250.256 23.6754 246.492 20.987 242.368 19.2455L240.812 22.9305C244.368 24.4317 247.686 26.7779 250.764 30.0175L253.664 27.2625ZM242.402 19.2604C238.288 17.4316 233.827 16.528 229.046 16.528V20.528C233.31 20.528 237.212 21.3311 240.778 22.9156L242.402 19.2604ZM229.046 16.528C224.483 16.528 220.27 17.2442 216.43 18.707L217.854 22.445C221.182 21.1771 224.905 20.528 229.046 20.528V16.528ZM216.43 18.707C212.604 20.1647 209.255 22.2705 206.407 25.0268L209.189 27.9012C211.631 25.5375 214.512 23.718 217.854 22.445L216.43 18.707ZM206.384 25.0498C203.63 27.8039 201.481 31.0563 199.935 34.786L203.629 36.318C204.984 33.0504 206.846 30.2441 209.212 27.8782L206.384 25.0498ZM199.919 34.8249C198.452 38.5847 197.734 42.7181 197.734 47.2H201.734C201.734 43.1485 202.382 39.5167 203.645 36.2791L199.919 34.8249ZM197.734 47.2C197.734 51.602 198.453 55.6918 199.919 59.4471L203.645 57.9929C202.38 54.7508 201.734 51.1607 201.734 47.2H197.734ZM199.935 59.486C201.479 63.2101 203.621 66.4956 206.361 69.3268L209.235 66.5452C206.855 64.0857 204.987 61.2273 203.629 57.954L199.935 59.486ZM206.407 69.3732C209.247 72.1216 212.546 74.2273 216.287 75.6872L217.741 71.9608C214.485 70.69 211.639 68.8704 209.189 66.4988L206.407 69.3732ZM216.302 75.693C220.138 77.1541 224.307 77.872 228.79 77.872V73.872C224.739 73.872 221.058 73.2245 217.726 71.955L216.302 75.693ZM228.79 77.872C233.098 77.872 237.28 77.1982 241.326 75.8494L240.062 72.0546C236.428 73.2658 232.674 73.872 228.79 73.872V77.872ZM241.351 75.841C245.549 74.3807 249.562 71.9787 253.391 68.684L250.782 65.652C247.272 68.672 243.689 70.7926 240.037 72.063L241.351 75.841ZM250.514 68.4042L262.29 83.3802L265.434 80.9078L253.658 65.9318L250.514 68.4042ZM262.658 80.5474C258.001 84.0598 252.544 86.7757 246.259 88.6777L247.417 92.5063C254.103 90.483 259.995 87.5668 265.066 83.7406L262.658 80.5474ZM246.252 88.6799C240.033 90.587 233.83 91.536 227.638 91.536V95.536C234.246 95.536 240.843 94.5224 247.424 92.5041L246.252 88.6799ZM246.918 79.456V45.792H242.918V79.456H246.918ZM244.918 47.792H263.862V43.792H244.918V47.792ZM261.862 45.792V82.144H265.862V45.792H261.862ZM264.143 80.1638L245.199 77.4758L244.637 81.4362L263.581 84.1242L264.143 80.1638ZM283.124 92H281.124V94H283.124V92ZM283.124 2.39999V0.399994H281.124V2.39999H283.124ZM342.644 6.368L341.814 8.18781L341.826 8.19289L341.837 8.19783L342.644 6.368ZM356.084 17.504L354.406 18.5929V18.5929L356.084 17.504ZM356.084 52.192L357.753 53.2945L357.757 53.2877L357.762 53.2809L356.084 52.192ZM342.644 63.2L343.451 65.0298L342.644 63.2ZM294.644 67.04L293.24 65.6159L289.767 69.04H294.644V67.04ZM303.86 57.952H305.86V53.1709L302.456 56.5279L303.86 57.952ZM303.86 92V94H305.86V92H303.86ZM340.084 92L338.437 93.1347L339.033 94H340.084V92ZM317.684 59.488V57.488H313.877L316.037 60.6227L317.684 59.488ZM339.828 59.488L341.469 58.3445L340.872 57.488H339.828V59.488ZM362.484 92V94H366.315L364.125 90.8565L362.484 92ZM303.86 60.256L302.408 61.6315L305.86 65.2752V60.256H303.86ZM294.644 50.528V48.528H289.994L293.192 51.9035L294.644 50.528ZM335.092 46.432L336.4 47.9447L336.412 47.9347L336.423 47.9246L335.092 46.432ZM294.644 19.296L293.183 17.93L290.036 21.296H294.644V19.296ZM303.86 9.43999H305.86V4.37282L302.399 8.07401L303.86 9.43999ZM285.124 92V2.39999H281.124V92H285.124ZM283.124 4.39999H321.908V0.399994H283.124V4.39999ZM321.908 4.39999C329.715 4.39999 336.33 5.68768 341.814 8.18781L343.474 4.54818C337.352 1.75764 330.144 0.399994 321.908 0.399994V4.39999ZM341.837 8.19783C347.318 10.6161 351.481 14.0857 354.406 18.5929L357.762 16.4151C354.373 11.1942 349.575 7.23989 343.451 4.53816L341.837 8.19783ZM354.406 18.5929C357.321 23.0828 358.82 28.493 358.82 34.912H362.82C362.82 27.8484 361.162 21.6532 357.762 16.4151L354.406 18.5929ZM358.82 34.912C358.82 41.2401 357.324 46.6091 354.406 51.1031L357.762 53.2809C361.159 48.0469 362.82 41.8959 362.82 34.912H358.82ZM354.415 51.0895C351.492 55.5143 347.327 58.9478 341.837 61.3702L343.451 65.0298C349.566 62.3322 354.362 58.427 357.753 53.2945L354.415 51.0895ZM341.837 61.3702C336.346 63.7924 329.722 65.04 321.908 65.04V69.04C330.136 69.04 337.336 67.7276 343.451 65.0298L341.837 61.3702ZM321.908 65.04H294.644V69.04H321.908V65.04ZM296.048 68.4641L305.264 59.3761L302.456 56.5279L293.24 65.6159L296.048 68.4641ZM301.86 57.952V92H305.86V57.952H301.86ZM303.86 90H283.124V94H303.86V90ZM341.731 90.8653L319.331 58.3533L316.037 60.6227L338.437 93.1347L341.731 90.8653ZM317.684 61.488H339.828V57.488H317.684V61.488ZM338.187 60.6315L360.843 93.1435L364.125 90.8565L341.469 58.3445L338.187 60.6315ZM362.484 90H340.084V94H362.484V90ZM305.312 58.8805L296.096 49.1525L293.192 51.9035L302.408 61.6315L305.312 58.8805ZM294.644 52.528H320.756V48.528H294.644V52.528ZM320.756 52.528C327.391 52.528 332.729 51.1199 336.4 47.9447L333.784 44.9193C331.14 47.2054 326.921 48.528 320.756 48.528V52.528ZM336.423 47.9246C340.072 44.6706 341.828 40.2518 341.828 34.912H337.828C337.828 39.3002 336.427 42.5614 333.761 44.9394L336.423 47.9246ZM341.828 34.912C341.828 29.5005 340.079 25.0611 336.4 21.8793L333.784 24.9047C336.419 27.1842 337.828 30.4248 337.828 34.912H341.828ZM336.4 21.8793C332.729 18.7041 327.391 17.296 320.756 17.296V21.296C326.921 21.296 331.14 22.6185 333.784 24.9047L336.4 21.8793ZM320.756 17.296H294.644V21.296H320.756V17.296ZM296.105 20.662L305.321 10.806L302.399 8.07401L293.183 17.93L296.105 20.662ZM301.86 9.43999V60.256H305.86V9.43999H301.86ZM387.233 82.912L388.639 81.4893L387.233 82.912ZM376.481 2.39999V0.399994H374.481V2.39999H376.481ZM397.217 2.39999H399.217V0.399994H397.217V2.39999ZM402.465 70.24L401.002 71.6034V71.6035L402.465 70.24ZM431.905 70.24L433.368 71.6035V71.6034L431.905 70.24ZM437.153 2.39999V0.399994H435.153V2.39999H437.153ZM457.633 2.39999H459.633V0.399994H457.633V2.39999ZM446.881 82.912L448.287 84.3347L446.881 82.912ZM417.057 91.536C404.724 91.536 395.341 88.1115 388.639 81.4893L385.827 84.3347C393.461 91.8779 403.961 95.536 417.057 95.536V91.536ZM388.639 81.4893C381.957 74.8869 378.481 65.3523 378.481 52.576H374.481C374.481 66.0823 378.173 76.7718 385.827 84.3347L388.639 81.4893ZM378.481 52.576V2.39999H374.481V52.576H378.481ZM376.481 4.39999H397.217V0.399994H376.481V4.39999ZM395.217 2.39999V51.808H399.217V2.39999H395.217ZM395.217 51.808C395.217 60.5332 396.991 67.2995 401.002 71.6034L403.928 68.8765C400.941 65.6712 399.217 60.1495 399.217 51.808H395.217ZM401.002 71.6035C404.963 75.8547 410.453 77.872 417.185 77.872V73.872C411.288 73.872 406.964 72.1346 403.928 68.8765L401.002 71.6035ZM417.185 77.872C423.917 77.872 429.407 75.8547 433.368 71.6035L430.442 68.8765C427.406 72.1346 423.082 73.872 417.185 73.872V77.872ZM433.368 71.6034C437.379 67.2995 439.153 60.5332 439.153 51.808H435.153C435.153 60.1495 433.429 65.6712 430.442 68.8765L433.368 71.6034ZM439.153 51.808V2.39999H435.153V51.808H439.153ZM437.153 4.39999H457.633V0.399994H437.153V4.39999ZM455.633 2.39999V52.576H459.633V2.39999H455.633ZM455.633 52.576C455.633 65.3523 452.157 74.8869 445.475 81.4893L448.287 84.3347C455.941 76.7718 459.633 66.0823 459.633 52.576H455.633ZM445.475 81.4893C438.773 88.1115 429.39 91.536 417.057 91.536V95.536C430.153 95.536 440.653 91.8779 448.287 84.3347L445.475 81.4893ZM478.124 92H476.124V94H478.124V92ZM478.124 2.39999V0.399994H476.124V2.39999H478.124ZM537.644 6.368L536.814 8.18781L536.826 8.19289L536.837 8.19783L537.644 6.368ZM551.084 17.504L549.406 18.5929V18.5929L551.084 17.504ZM537.644 63.456L538.451 65.2858L538.462 65.2809L538.474 65.2758L537.644 63.456ZM489.644 67.296L488.22 65.8916L484.862 69.296H489.644V67.296ZM498.86 57.952H500.86V53.0761L497.436 56.5476L498.86 57.952ZM498.86 92V94H500.86V92H498.86ZM498.86 60.256L497.399 61.622L500.86 65.3232V60.256H498.86ZM489.644 50.4V48.4H485.036L488.183 51.766L489.644 50.4ZM489.644 19.296L488.183 17.93L485.036 21.296H489.644V19.296ZM498.86 9.43999H500.86V4.37282L497.399 8.07401L498.86 9.43999ZM480.124 92V2.39999H476.124V92H480.124ZM478.124 4.39999H516.908V0.399994H478.124V4.39999ZM516.908 4.39999C524.715 4.39999 531.33 5.68768 536.814 8.18781L538.474 4.54818C532.352 1.75764 525.144 0.399994 516.908 0.399994V4.39999ZM536.837 8.19783C542.318 10.6161 546.481 14.0857 549.406 18.5929L552.762 16.4151C549.373 11.1942 544.575 7.23989 538.451 4.53816L536.837 8.19783ZM549.406 18.5929C552.321 23.0828 553.82 28.493 553.82 34.912H557.82C557.82 27.8484 556.162 21.6532 552.762 16.4151L549.406 18.5929ZM553.82 34.912C553.82 41.2401 552.324 46.6091 549.406 51.1031L552.762 53.2809C556.159 48.0469 557.82 41.8959 557.82 34.912H553.82ZM549.406 51.1031C546.477 55.6162 542.306 59.1325 536.814 61.6362L538.474 65.2758C544.587 62.4889 549.376 58.4958 552.762 53.2809L549.406 51.1031ZM536.837 61.6262C531.346 64.0484 524.722 65.296 516.908 65.296V69.296C525.136 69.296 532.336 67.9836 538.451 65.2858L536.837 61.6262ZM516.908 65.296H489.644V69.296H516.908V65.296ZM491.068 68.7004L500.284 59.3564L497.436 56.5476L488.22 65.8916L491.068 68.7004ZM496.86 57.952V92H500.86V57.952H496.86ZM498.86 90H478.124V94H498.86V90ZM500.321 58.89L491.105 49.034L488.183 51.766L497.399 61.622L500.321 58.89ZM489.644 52.4H515.756V48.4H489.644V52.4ZM515.756 52.4C522.391 52.4 527.729 50.9919 531.4 47.8167L528.784 44.7913C526.14 47.0774 521.921 48.4 515.756 48.4V52.4ZM531.4 47.8167C535.071 44.6418 536.828 40.2506 536.828 34.912H532.828C532.828 39.3014 531.427 42.5048 528.784 44.7913L531.4 47.8167ZM536.828 34.912C536.828 29.5005 535.079 25.0611 531.4 21.8793L528.784 24.9047C531.419 27.1842 532.828 30.4248 532.828 34.912H536.828ZM531.4 21.8793C527.729 18.7041 522.391 17.296 515.756 17.296V21.296C521.921 21.296 526.14 22.6185 528.784 24.9047L531.4 21.8793ZM515.756 17.296H489.644V21.296H515.756V17.296ZM491.105 20.662L500.321 10.806L497.399 8.07401L488.183 17.93L491.105 20.662ZM496.86 9.43999V60.256H500.86V9.43999H496.86ZM595.682 90.08L594.962 91.946L594.971 91.9494L595.682 90.08ZM580.066 80.352L578.68 81.7942L578.687 81.8009L578.694 81.8076L580.066 80.352ZM569.826 65.632L567.985 66.4131L567.99 66.4249L567.995 66.4365L569.826 65.632ZM569.826 28.768L567.995 27.9635L567.99 27.9751L567.985 27.9869L569.826 28.768ZM595.81 4.31999L595.09 2.45399L595.81 4.31999ZM634.722 4.31999L633.993 6.1825L634.002 6.186L634.722 4.31999ZM650.21 14.048L648.824 15.4902L648.831 15.4969L648.838 15.5036L650.21 14.048ZM660.578 28.768L658.747 29.5726L658.752 29.5829L660.578 28.768ZM660.578 65.76L662.409 66.5646L662.413 66.5544L660.578 65.76ZM650.21 80.48L651.581 81.9364L651.582 81.9356L650.21 80.48ZM634.722 90.08L634.002 88.214L633.993 88.2175L634.722 90.08ZM626.274 73.824L625.531 71.967L625.523 71.9703L625.515 71.9737L626.274 73.824ZM635.234 67.936L633.82 66.5218V66.5218L635.234 67.936ZM641.122 58.848L639.275 58.082L639.266 58.1014L639.259 58.1209L641.122 58.848ZM641.122 35.552L639.259 36.2791L639.266 36.2986L639.275 36.318L641.122 35.552ZM635.234 26.464L633.796 27.854L633.808 27.8662L633.82 27.8782L635.234 26.464ZM626.402 20.576L625.659 22.4329L626.402 20.576ZM604.13 20.576L603.387 18.719L603.379 18.7223L603.371 18.7257L604.13 20.576ZM595.298 26.464L596.712 27.8782V27.8782L595.298 26.464ZM589.282 35.552L587.435 34.786L587.426 34.8054L587.419 34.8249L589.282 35.552ZM589.282 58.848L587.413 59.56L587.423 59.5872L587.435 59.614L589.282 58.848ZM595.17 67.936L593.732 69.326L593.744 69.3382L593.756 69.3502L595.17 67.936ZM604.13 73.824L603.387 75.681L604.13 73.824ZM615.394 91.536C608.532 91.536 602.204 90.4206 596.393 88.2106L594.971 91.9494C601.277 94.3474 608.091 95.536 615.394 95.536V91.536ZM596.402 88.214C590.658 85.9985 585.677 82.8912 581.438 78.8964L578.694 81.8076C583.33 86.1755 588.759 89.5535 594.962 91.946L596.402 88.214ZM581.452 78.9098C577.292 74.9134 574.029 70.2245 571.657 64.8275L567.995 66.4365C570.573 72.3035 574.136 77.428 578.68 81.7942L581.452 78.9098ZM571.667 64.8509C569.392 59.487 568.242 53.6114 568.242 47.2H564.242C564.242 54.1006 565.482 60.513 567.985 66.4131L571.667 64.8509ZM568.242 47.2C568.242 40.7886 569.392 34.913 571.667 29.5491L567.985 27.9869C565.482 33.887 564.242 40.2994 564.242 47.2H568.242ZM571.657 29.5725C574.025 24.1839 577.325 19.4992 581.566 15.5036L578.822 12.5924C574.188 16.9594 570.577 22.0881 567.995 27.9635L571.657 29.5725ZM581.566 15.5036C585.805 11.5088 590.786 8.40146 596.53 6.186L595.09 2.45399C588.887 4.84652 583.458 8.22451 578.822 12.5924L581.566 15.5036ZM596.53 6.186C602.253 3.97846 608.492 2.864 615.266 2.864V-1.136C608.045 -1.136 601.314 0.0535316 595.09 2.45399L596.53 6.186ZM615.266 2.864C622.129 2.864 628.364 3.97963 633.993 6.18248L635.451 2.4575C629.304 0.0523586 622.568 -1.136 615.266 -1.136V2.864ZM634.002 6.186C639.743 8.40027 644.675 11.504 648.824 15.4902L651.596 12.6058C647.041 8.22932 641.648 4.84771 635.442 2.45399L634.002 6.186ZM648.838 15.5036C653.079 19.4992 656.379 24.1839 658.747 29.5725L662.409 27.9635C659.827 22.0881 656.216 16.9594 651.582 12.5924L648.838 15.5036ZM658.752 29.5829C661.1 34.8462 662.29 40.7084 662.29 47.2H666.29C666.29 40.2089 665.006 33.7831 662.404 27.9531L658.752 29.5829ZM662.29 47.2C662.29 53.6017 661.101 59.5158 658.743 64.9656L662.413 66.5544C665.004 60.5695 666.29 54.1103 666.29 47.2H662.29ZM658.747 64.9555C656.379 70.3441 653.079 75.0288 648.838 79.0244L651.582 81.9356C656.216 77.5686 659.827 72.4399 662.409 66.5645L658.747 64.9555ZM648.839 79.0236C644.689 82.9299 639.752 85.9964 634.002 88.214L635.442 91.946C641.639 89.5556 647.027 86.2221 651.581 81.9364L648.839 79.0236ZM633.993 88.2175C628.361 90.4214 622.169 91.536 615.394 91.536V95.536C622.614 95.536 629.307 94.3466 635.451 91.9425L633.993 88.2175ZM615.266 77.872C619.507 77.872 623.438 77.1492 627.033 75.6743L625.515 71.9737C622.454 73.2294 619.046 73.872 615.266 73.872V77.872ZM627.017 75.681C630.678 74.2166 633.894 72.1048 636.648 69.3502L633.82 66.5218C631.454 68.8872 628.697 70.7007 625.531 71.967L627.017 75.681ZM636.648 69.3502C639.411 66.5873 641.523 63.3215 642.985 59.5751L639.259 58.1209C637.99 61.3718 636.177 64.1647 633.82 66.5218L636.648 69.3502ZM642.969 59.614C644.533 55.8437 645.298 51.6964 645.298 47.2H641.298C641.298 51.2369 640.613 54.855 639.275 58.082L642.969 59.614ZM645.298 47.2C645.298 42.7036 644.533 38.5563 642.969 34.786L639.275 36.318C640.613 39.545 641.298 43.1631 641.298 47.2H645.298ZM642.985 34.8249C641.523 31.0785 639.411 27.8127 636.648 25.0498L633.82 27.8782C636.177 30.2353 637.99 33.0282 639.259 36.2791L642.985 34.8249ZM636.672 25.074C633.995 22.3043 630.811 20.1857 627.145 18.719L625.659 22.4329C628.819 23.6969 631.524 25.5036 633.796 27.854L636.672 25.074ZM627.145 18.719C623.475 17.2509 619.508 16.528 615.266 16.528V20.528C619.045 20.528 622.503 21.1704 625.659 22.4329L627.145 18.719ZM615.266 16.528C611.024 16.528 607.057 17.2509 603.387 18.719L604.873 22.4329C608.029 21.1704 611.487 20.528 615.266 20.528V16.528ZM603.371 18.7257C599.796 20.1922 596.63 22.3037 593.884 25.0498L596.712 27.8782C599.086 25.5043 601.808 23.6904 604.889 22.4263L603.371 18.7257ZM593.884 25.0498C591.13 27.8039 588.981 31.0563 587.435 34.786L591.129 36.318C592.484 33.0504 594.346 30.2441 596.712 27.8782L593.884 25.0498ZM587.419 34.8249C585.952 38.5847 585.234 42.7181 585.234 47.2H589.234C589.234 43.1485 589.882 39.5167 591.145 36.2791L587.419 34.8249ZM585.234 47.2C585.234 51.6026 585.954 55.7289 587.413 59.56L591.151 58.136C589.88 54.7991 589.234 51.16 589.234 47.2H585.234ZM587.435 59.614C588.975 63.3296 591.072 66.5743 593.732 69.326L596.608 66.546C594.319 64.1777 592.49 61.3637 591.129 58.082L587.435 59.614ZM593.756 69.3502C596.51 72.1048 599.726 74.2166 603.387 75.681L604.873 71.967C601.707 70.7007 598.95 68.8872 596.584 66.5218L593.756 69.3502ZM603.387 75.681C607.057 77.149 611.024 77.872 615.266 77.872V73.872C611.487 73.872 608.029 73.2296 604.873 71.967L603.387 75.681ZM29.7415 244.208L29.0127 246.07L29.0289 246.077L29.0451 246.083L29.7415 244.208ZM14.2535 234.48L12.8678 235.922L12.8748 235.929L12.8819 235.936L14.2535 234.48ZM4.0135 219.76L2.17233 220.541L2.17732 220.553L2.18246 220.565L4.0135 219.76ZM4.0135 182.64L2.18246 181.835L2.17732 181.847L2.17233 181.859L4.0135 182.64ZM14.3815 167.92L15.7531 169.376L14.3815 167.92ZM29.9975 158.32L30.6939 160.195L30.7056 160.19L30.7172 160.186L29.9975 158.32ZM71.0855 158.832L70.3127 160.677L70.3215 160.68L71.0855 158.832ZM87.2135 170.352L88.5701 171.822L89.9925 170.509L88.7266 169.044L87.2135 170.352ZM73.9015 182.64L72.4515 184.018L73.8094 185.447L75.2581 184.11L73.9015 182.64ZM63.2775 175.088L62.4652 176.916L62.4823 176.923L62.4996 176.93L63.2775 175.088ZM29.4855 180.464L28.0947 179.027L28.0829 179.038L28.0713 179.05L29.4855 180.464ZM23.4695 189.552L21.622 188.786L21.614 188.805L21.6064 188.825L23.4695 189.552ZM23.4695 212.72L21.6064 213.447L21.614 213.467L21.622 213.486L23.4695 212.72ZM29.4855 221.936L28.0483 223.327L28.0711 223.35L28.0947 223.373L29.4855 221.936ZM38.7015 227.824L37.9744 229.687L37.9819 229.69L37.9895 229.693L38.7015 227.824ZM62.3815 227.952L63.0139 229.849L63.0263 229.845L63.0385 229.841L62.3815 227.952ZM73.7735 221.168L75.3457 219.932L74.0536 218.289L72.469 219.652L73.7735 221.168ZM85.5495 236.144L86.754 237.741L88.3829 236.512L87.1217 234.908L85.5495 236.144ZM68.5255 244.592L67.9462 242.678L67.9391 242.68L68.5255 244.592ZM66.6055 233.456H64.6055V235.192L66.3245 235.436L66.6055 233.456ZM66.6055 199.792V197.792H64.6055V199.792H66.6055ZM85.5495 199.792H87.5495V197.792H85.5495V199.792ZM85.5495 236.144L85.2685 238.124L87.5495 238.448V236.144H85.5495ZM49.3255 245.536C42.4542 245.536 36.1649 244.46 30.4379 242.333L29.0451 246.083C35.2648 248.393 42.0315 249.536 49.3255 249.536V245.536ZM30.4703 242.346C24.8116 240.131 19.8693 237.024 15.6251 233.024L12.8819 235.936C17.5124 240.299 22.8954 243.677 29.0127 246.07L30.4703 242.346ZM15.6391 233.038C11.4796 229.041 8.21599 224.353 5.84454 218.955L2.18246 220.565C4.76035 226.431 8.32339 231.556 12.8678 235.922L15.6391 233.038ZM5.85466 218.979C3.58037 213.618 2.4295 207.7 2.4295 201.2H-1.5705C-1.5705 208.182 -0.332031 214.638 2.17233 220.541L5.85466 218.979ZM2.4295 201.2C2.4295 194.7 3.58037 188.782 5.85466 183.421L2.17233 181.859C-0.332031 187.762 -1.5705 194.218 -1.5705 201.2H2.4295ZM5.84454 183.445C8.21228 178.056 11.5128 173.371 15.7531 169.376L13.0099 166.464C8.3755 170.831 4.76405 175.96 2.18246 181.835L5.84454 183.445ZM15.7531 169.376C19.9869 165.386 24.9599 162.325 30.6939 160.195L29.3011 156.445C23.0885 158.753 17.6508 162.091 13.0099 166.464L15.7531 169.376ZM30.7172 160.186C36.4351 157.981 42.7583 156.864 49.7095 156.864V152.864C42.3247 152.864 35.5065 154.051 29.2778 156.454L30.7172 160.186ZM49.7095 156.864C57.4219 156.864 64.2786 158.149 70.3127 160.677L71.8583 156.987C65.2631 154.224 57.8691 152.864 49.7095 152.864V156.864ZM70.3215 160.68C76.4452 163.211 81.5609 166.871 85.7004 171.66L88.7266 169.044C84.1621 163.764 78.5258 159.743 71.8495 156.984L70.3215 160.68ZM85.8569 168.882L72.545 181.17L75.2581 184.11L88.5701 171.822L85.8569 168.882ZM75.3515 181.262C71.9438 177.675 68.18 174.987 64.0555 173.245L62.4996 176.93C66.0551 178.432 69.3739 180.778 72.4515 184.018L75.3515 181.262ZM64.0898 173.26C59.975 171.432 55.5144 170.528 50.7335 170.528V174.528C54.998 174.528 58.9 175.331 62.4652 176.916L64.0898 173.26ZM50.7335 170.528C46.1707 170.528 41.9574 171.244 38.1175 172.707L39.5415 176.445C42.8696 175.177 46.5923 174.528 50.7335 174.528V170.528ZM38.1175 172.707C34.2911 174.165 30.9428 176.27 28.0947 179.027L30.8763 181.901C33.3188 179.538 36.1999 177.718 39.5415 176.445L38.1175 172.707ZM28.0713 179.05C25.3172 181.804 23.1685 185.056 21.622 188.786L25.317 190.318C26.6719 187.05 28.5338 184.244 30.8997 181.878L28.0713 179.05ZM21.6064 188.825C20.1391 192.585 19.4215 196.718 19.4215 201.2H23.4215C23.4215 197.149 24.0692 193.517 25.3327 190.279L21.6064 188.825ZM19.4215 201.2C19.4215 205.602 20.1409 209.692 21.6064 213.447L25.3327 211.993C24.0674 208.751 23.4215 205.161 23.4215 201.2H19.4215ZM21.622 213.486C23.1661 217.21 25.3084 220.496 28.0483 223.327L30.9227 220.545C28.5426 218.086 26.6742 215.227 25.317 211.954L21.622 213.486ZM28.0947 223.373C30.9347 226.122 34.2336 228.227 37.9744 229.687L39.4286 225.961C36.1721 224.69 33.327 222.87 30.8763 220.499L28.0947 223.373ZM37.9895 229.693C41.8251 231.154 45.9948 231.872 50.4775 231.872V227.872C46.4269 227.872 42.7459 227.225 39.4135 225.955L37.9895 229.693ZM50.4775 231.872C54.7859 231.872 58.9676 231.198 63.0139 229.849L61.7491 226.055C58.1154 227.266 54.3611 227.872 50.4775 227.872V231.872ZM63.0385 229.841C67.2369 228.381 71.2491 225.979 75.078 222.684L72.469 219.652C68.9593 222.672 65.3768 224.793 61.7245 226.063L63.0385 229.841ZM72.2013 222.404L83.9773 237.38L87.1217 234.908L75.3457 219.932L72.2013 222.404ZM84.345 234.547C79.689 238.06 74.2312 240.776 67.9462 242.678L69.1048 246.506C75.7905 244.483 81.682 241.567 86.754 237.741L84.345 234.547ZM67.9391 242.68C61.7204 244.587 55.5178 245.536 49.3255 245.536V249.536C55.9332 249.536 62.5306 248.522 69.1119 246.504L67.9391 242.68ZM68.6055 233.456V199.792H64.6055V233.456H68.6055ZM66.6055 201.792H85.5495V197.792H66.6055V201.792ZM83.5495 199.792V236.144H87.5495V199.792H83.5495ZM85.8305 234.164L66.8865 231.476L66.3245 235.436L85.2685 238.124L85.8305 234.164ZM123.884 192.496V190.496H121.884V192.496H123.884ZM167.02 192.496H169.02V190.496H167.02V192.496ZM167.02 208.624V210.624H169.02V208.624H167.02ZM123.884 208.624H121.884V210.624H123.884V208.624ZM125.419 229.36H123.419V231.36H125.419V229.36ZM174.188 229.36H176.188V227.36H174.188V229.36ZM174.188 246V248H176.188V246H174.188ZM104.811 246H102.811V248H104.811V246ZM104.811 156.4V154.4H102.811V156.4H104.811ZM172.523 156.4H174.523V154.4H172.523V156.4ZM172.523 173.04V175.04H174.523V173.04H172.523ZM125.419 173.04V171.04H123.419V173.04H125.419ZM123.884 194.496H167.02V190.496H123.884V194.496ZM165.02 192.496V208.624H169.02V192.496H165.02ZM167.02 206.624H123.884V210.624H167.02V206.624ZM125.884 208.624V192.496H121.884V208.624H125.884ZM125.419 231.36H174.188V227.36H125.419V231.36ZM172.188 229.36V246H176.188V229.36H172.188ZM174.188 244H104.811V248H174.188V244ZM106.811 246V156.4H102.811V246H106.811ZM104.811 158.4H172.523V154.4H104.811V158.4ZM170.523 156.4V173.04H174.523V156.4H170.523ZM172.523 171.04H125.419V175.04H172.523V171.04ZM123.419 173.04V229.36H127.419V173.04H123.419ZM190.686 246H188.686V248H190.686V246ZM190.686 156.4V154.4H188.686V156.4H190.686ZM250.207 160.368L249.377 162.188L249.388 162.193L249.399 162.198L250.207 160.368ZM263.647 171.504L261.969 172.593L263.647 171.504ZM263.647 206.192L265.315 207.295L265.32 207.288L265.324 207.281L263.647 206.192ZM250.207 217.2L251.014 219.03L250.207 217.2ZM202.207 221.04L200.802 219.616L197.33 223.04H202.207V221.04ZM211.422 211.952H213.422V207.171L210.018 210.528L211.422 211.952ZM211.422 246V248H213.422V246H211.422ZM247.646 246L246 247.135L246.596 248H247.646V246ZM225.246 213.488V211.488H221.44L223.6 214.623L225.246 213.488ZM247.391 213.488L249.031 212.345L248.435 211.488H247.391V213.488ZM270.047 246V248H273.878L271.687 244.857L270.047 246ZM211.422 214.256L209.971 215.631L213.422 219.275V214.256H211.422ZM202.207 204.528V202.528H197.557L200.755 205.903L202.207 204.528ZM242.655 200.432L243.963 201.945L243.974 201.935L243.986 201.925L242.655 200.432ZM202.207 173.296L200.746 171.93L197.598 175.296H202.207V173.296ZM211.422 163.44H213.422V158.373L209.962 162.074L211.422 163.44ZM192.686 246V156.4H188.686V246H192.686ZM190.686 158.4H229.47V154.4H190.686V158.4ZM229.47 158.4C237.277 158.4 243.893 159.688 249.377 162.188L251.036 158.548C244.915 155.758 237.707 154.4 229.47 154.4V158.4ZM249.399 162.198C254.881 164.616 259.043 168.086 261.969 172.593L265.324 170.415C261.935 165.194 257.138 161.24 251.014 158.538L249.399 162.198ZM261.969 172.593C264.883 177.083 266.383 182.493 266.383 188.912H270.383C270.383 181.848 268.724 175.653 265.324 170.415L261.969 172.593ZM266.383 188.912C266.383 195.24 264.886 200.609 261.969 205.103L265.324 207.281C268.722 202.047 270.383 195.896 270.383 188.912H266.383ZM261.978 205.089C259.054 209.514 254.89 212.948 249.399 215.37L251.014 219.03C257.128 216.332 261.924 212.427 265.315 207.295L261.978 205.089ZM249.399 215.37C243.909 217.792 237.285 219.04 229.47 219.04V223.04C237.699 223.04 244.899 221.728 251.014 219.03L249.399 215.37ZM229.47 219.04H202.207V223.04H229.47V219.04ZM203.611 222.464L212.827 213.376L210.018 210.528L200.802 219.616L203.611 222.464ZM209.422 211.952V246H213.422V211.952H209.422ZM211.422 244H190.686V248H211.422V244ZM249.293 244.865L226.893 212.353L223.6 214.623L246 247.135L249.293 244.865ZM225.246 215.488H247.391V211.488H225.246V215.488ZM245.75 214.631L268.406 247.143L271.687 244.857L249.031 212.345L245.75 214.631ZM270.047 244H247.646V248H270.047V244ZM212.874 212.881L203.658 203.153L200.755 205.903L209.971 215.631L212.874 212.881ZM202.207 206.528H228.319V202.528H202.207V206.528ZM228.319 206.528C234.953 206.528 240.292 205.12 243.963 201.945L241.346 198.919C238.703 201.205 234.484 202.528 228.319 202.528V206.528ZM243.986 201.925C247.634 198.671 249.391 194.252 249.391 188.912H245.391C245.391 193.3 243.99 196.561 241.323 198.939L243.986 201.925ZM249.391 188.912C249.391 183.501 247.642 179.061 243.963 175.879L241.346 178.905C243.982 181.184 245.391 184.425 245.391 188.912H249.391ZM243.963 175.879C240.292 172.704 234.953 171.296 228.319 171.296V175.296C234.484 175.296 238.703 176.619 241.346 178.905L243.963 175.879ZM228.319 171.296H202.207V175.296H228.319V171.296ZM203.667 174.662L212.883 164.806L209.962 162.074L200.746 171.93L203.667 174.662ZM209.422 163.44V214.256H213.422V163.44H209.422ZM273.035 246L271.209 245.186L269.954 248H273.035V246ZM312.971 156.4V154.4H311.673L311.145 155.586L312.971 156.4ZM333.451 156.4L335.277 155.584L334.748 154.4H333.451V156.4ZM373.516 246V248H376.601L375.341 245.184L373.516 246ZM351.755 246L349.908 246.765L350.419 248H351.755V246ZM318.987 166.896V164.896H315.994L317.14 167.661L318.987 166.896ZM327.18 166.896L329.026 167.664L330.177 164.896H327.18V166.896ZM294.284 246V248H295.618L296.13 246.768L294.284 246ZM293.004 226.8L291.116 226.14L290.186 228.8H293.004V226.8ZM298.508 211.056V209.056H297.088L296.62 210.396L298.508 211.056ZM344.588 211.056L346.471 210.382L345.996 209.056H344.588V211.056ZM350.219 226.8V228.8H353.059L352.103 226.126L350.219 226.8ZM274.862 246.814L314.798 157.214L311.145 155.586L271.209 245.186L274.862 246.814ZM312.971 158.4H333.451V154.4H312.971V158.4ZM331.626 157.216L371.69 246.816L375.341 245.184L335.277 155.584L331.626 157.216ZM373.516 244H351.755V248H373.516V244ZM353.603 245.235L320.835 166.131L317.14 167.661L349.908 246.765L353.603 245.235ZM318.987 168.896H327.18V164.896H318.987V168.896ZM325.333 166.128L292.437 245.232L296.13 246.768L329.026 167.664L325.333 166.128ZM294.284 244H273.035V248H294.284V244ZM294.891 227.46L300.395 211.716L296.62 210.396L291.116 226.14L294.891 227.46ZM298.508 213.056H344.588V209.056H298.508V213.056ZM342.704 211.73L348.336 227.474L352.103 226.126L346.471 210.382L342.704 211.73ZM350.219 224.8H293.004V228.8H350.219V224.8ZM382.812 246H380.812V248H382.812V246ZM382.812 156.4V154.4H380.812V156.4H382.812ZM449.244 162.032L448.341 163.817L448.349 163.821L448.357 163.825L449.244 162.032ZM466.651 177.52L464.958 178.584L466.651 177.52ZM466.651 224.88L468.345 225.944L468.351 225.934L466.651 224.88ZM449.244 240.496L450.13 242.289L450.138 242.285L450.146 242.281L449.244 240.496ZM403.547 228.976H401.547V230.976H403.547V228.976ZM437.979 225.648L438.888 227.43L438.895 227.426L438.901 227.423L437.979 225.648ZM448.219 215.92L446.498 214.901L446.491 214.914L446.483 214.928L448.219 215.92ZM448.219 186.48L446.483 187.472L446.495 187.493L446.508 187.514L448.219 186.48ZM437.979 176.88L437.044 178.648L437.064 178.658L437.085 178.669L437.979 176.88ZM403.547 173.424V171.424H401.547V173.424H403.547ZM384.812 246V156.4H380.812V246H384.812ZM382.812 158.4H423.516V154.4H382.812V158.4ZM423.516 158.4C432.983 158.4 441.24 160.226 448.341 163.817L450.146 160.247C442.399 156.329 433.504 154.4 423.516 154.4V158.4ZM448.357 163.825C455.469 167.34 460.984 172.258 464.958 178.584L468.345 176.456C463.956 169.47 457.866 164.063 450.13 160.239L448.357 163.825ZM464.958 178.584C468.908 184.872 470.924 192.384 470.924 201.2H474.924C474.924 191.755 472.757 183.48 468.345 176.456L464.958 178.584ZM470.924 201.2C470.924 209.926 468.91 217.444 464.952 223.826L468.351 225.934C472.755 218.834 474.924 210.564 474.924 201.2H470.924ZM464.958 223.816C460.981 230.146 455.46 235.111 448.341 238.711L450.146 242.281C457.875 238.372 463.959 232.926 468.345 225.944L464.958 223.816ZM448.357 238.703C441.253 242.214 432.99 244 423.516 244V248C433.497 248 442.386 246.116 450.13 242.289L448.357 238.703ZM423.516 244H382.812V248H423.516V244ZM403.547 230.976H422.492V226.976H403.547V230.976ZM422.492 230.976C428.711 230.976 434.199 229.82 438.888 227.43L437.071 223.866C433.056 225.913 428.218 226.976 422.492 226.976V230.976ZM438.901 227.423C443.666 224.949 447.368 221.441 449.956 216.912L446.483 214.928C444.292 218.762 441.168 221.739 437.058 223.873L438.901 227.423ZM449.941 216.939C452.625 212.403 453.932 207.133 453.932 201.2H449.932C449.932 206.531 448.763 211.075 446.498 214.901L449.941 216.939ZM453.932 201.2C453.932 195.19 452.628 189.91 449.931 185.446L446.508 187.514C448.76 191.242 449.932 195.776 449.932 201.2H453.932ZM449.956 185.488C447.365 180.953 443.653 177.481 438.874 175.091L437.085 178.669C441.181 180.717 444.296 183.645 446.483 187.472L449.956 185.488ZM438.915 175.112C434.22 172.627 428.722 171.424 422.492 171.424V175.424C428.207 175.424 433.035 176.525 437.044 178.648L438.915 175.112ZM422.492 171.424H403.547V175.424H422.492V171.424ZM401.547 173.424V228.976H405.547V173.424H401.547ZM512.37 244.08L511.65 245.946L511.659 245.949L512.37 244.08ZM496.753 234.352L495.368 235.794L495.375 235.801L495.382 235.808L496.753 234.352ZM486.513 219.632L484.672 220.413L484.677 220.425L484.682 220.437L486.513 219.632ZM486.513 182.768L484.682 181.963L484.677 181.975L484.672 181.987L486.513 182.768ZM512.497 158.32L511.778 156.454L512.497 158.32ZM551.409 158.32L550.681 160.182L550.69 160.186L551.409 158.32ZM566.898 168.048L565.512 169.49L565.519 169.497L565.526 169.504L566.898 168.048ZM577.266 182.768L575.434 183.573L575.439 183.583L577.266 182.768ZM577.266 219.76L579.097 220.565L579.101 220.554L577.266 219.76ZM566.898 234.48L568.268 235.936L568.269 235.936L566.898 234.48ZM551.409 244.08L550.69 242.214L550.681 242.218L551.409 244.08ZM542.961 227.824L542.219 225.967L542.211 225.97L542.202 225.974L542.961 227.824ZM551.922 221.936L550.507 220.522L551.922 221.936ZM557.81 212.848L555.962 212.082L555.954 212.101L555.946 212.121L557.81 212.848ZM557.81 189.552L555.946 190.279L555.954 190.299L555.962 190.318L557.81 189.552ZM551.922 180.464L550.484 181.854L550.495 181.866L550.507 181.878L551.922 180.464ZM543.089 174.576L542.347 176.433L543.089 174.576ZM520.818 174.576L520.075 172.719L520.067 172.722L520.058 172.726L520.818 174.576ZM511.985 180.464L513.4 181.878L511.985 180.464ZM505.969 189.552L504.122 188.786L504.114 188.805L504.106 188.825L505.969 189.552ZM505.969 212.848L504.101 213.56L504.111 213.587L504.122 213.614L505.969 212.848ZM511.857 221.936L510.42 223.326L510.431 223.338L510.443 223.35L511.857 221.936ZM520.818 227.824L520.075 229.681L520.818 227.824ZM532.081 245.536C525.219 245.536 518.892 244.421 513.08 242.211L511.659 245.949C517.964 248.347 524.778 249.536 532.081 249.536V245.536ZM513.089 242.214C507.345 239.999 502.364 236.891 498.125 232.896L495.382 235.808C500.017 240.175 505.447 243.553 511.65 245.946L513.089 242.214ZM498.139 232.91C493.98 228.913 490.716 224.225 488.345 218.827L484.682 220.437C487.26 226.303 490.823 231.428 495.368 235.794L498.139 232.91ZM488.355 218.851C486.079 213.487 484.93 207.611 484.93 201.2H480.93C480.93 208.101 482.169 214.513 484.672 220.413L488.355 218.851ZM484.93 201.2C484.93 194.789 486.079 188.913 488.355 183.549L484.672 181.987C482.169 187.887 480.93 194.299 480.93 201.2H484.93ZM488.345 183.573C490.712 178.184 494.013 173.499 498.253 169.504L495.51 166.592C490.875 170.959 487.264 176.088 484.682 181.963L488.345 183.573ZM498.253 169.504C502.492 165.509 507.473 162.401 513.217 160.186L511.778 156.454C505.575 158.847 500.145 162.225 495.51 166.592L498.253 169.504ZM513.217 160.186C518.94 157.978 525.179 156.864 531.953 156.864V152.864C524.733 152.864 518.001 154.054 511.778 156.454L513.217 160.186ZM531.953 156.864C538.817 156.864 545.051 157.98 550.681 160.182L552.138 156.458C545.992 154.052 539.256 152.864 531.953 152.864V156.864ZM550.69 160.186C556.43 162.4 561.363 165.504 565.512 169.49L568.283 166.606C563.728 162.229 558.335 158.848 552.129 156.454L550.69 160.186ZM565.526 169.504C569.766 173.499 573.067 178.184 575.434 183.573L579.097 181.963C576.515 176.088 572.904 170.959 568.269 166.592L565.526 169.504ZM575.439 183.583C577.787 188.846 578.978 194.708 578.978 201.2H582.978C582.978 194.209 581.693 187.783 579.092 181.953L575.439 183.583ZM578.978 201.2C578.978 207.602 577.789 213.516 575.43 218.966L579.101 220.554C581.691 214.569 582.978 208.11 582.978 201.2H578.978ZM575.434 218.955C573.067 224.344 569.766 229.029 565.526 233.024L568.269 235.936C572.904 231.569 576.515 226.44 579.097 220.565L575.434 218.955ZM565.527 233.024C561.376 236.93 556.439 239.996 550.69 242.214L552.129 245.946C558.327 243.556 563.715 240.222 568.268 235.936L565.527 233.024ZM550.681 242.218C545.048 244.421 538.856 245.536 532.081 245.536V249.536C539.302 249.536 545.995 248.347 552.138 245.942L550.681 242.218ZM531.953 231.872C536.195 231.872 540.126 231.149 543.721 229.674L542.202 225.974C539.141 227.229 535.734 227.872 531.953 227.872V231.872ZM543.704 229.681C547.365 228.217 550.581 226.105 553.336 223.35L550.507 220.522C548.142 222.887 545.385 224.701 542.219 225.967L543.704 229.681ZM553.336 223.35C556.099 220.587 558.211 217.322 559.673 213.575L555.946 212.121C554.678 215.372 552.864 218.165 550.507 220.522L553.336 223.35ZM559.657 213.614C561.22 209.844 561.985 205.696 561.985 201.2H557.985C557.985 205.237 557.3 208.855 555.962 212.082L559.657 213.614ZM561.985 201.2C561.985 196.704 561.22 192.556 559.657 188.786L555.962 190.318C557.3 193.545 557.985 197.163 557.985 201.2H561.985ZM559.673 188.825C558.211 185.078 556.099 181.813 553.336 179.05L550.507 181.878C552.864 184.235 554.678 187.028 555.946 190.279L559.673 188.825ZM553.359 179.074C550.682 176.304 547.499 174.186 543.832 172.719L542.347 176.433C545.507 177.697 548.211 179.504 550.484 181.854L553.359 179.074ZM543.832 172.719C540.162 171.251 536.195 170.528 531.953 170.528V174.528C535.733 174.528 539.19 175.17 542.347 176.433L543.832 172.719ZM531.953 170.528C527.712 170.528 523.745 171.251 520.075 172.719L521.56 176.433C524.717 175.17 528.174 174.528 531.953 174.528V170.528ZM520.058 172.726C516.484 174.192 513.317 176.304 510.571 179.05L513.4 181.878C515.774 179.504 518.495 177.69 521.577 176.426L520.058 172.726ZM510.571 179.05C507.817 181.804 505.668 185.056 504.122 188.786L507.817 190.318C509.172 187.05 511.034 184.244 513.4 181.878L510.571 179.05ZM504.106 188.825C502.639 192.585 501.922 196.718 501.922 201.2H505.922C505.922 197.149 506.569 193.517 507.833 190.279L504.106 188.825ZM501.922 201.2C501.922 205.603 502.641 209.729 504.101 213.56L507.839 212.136C506.567 208.799 505.922 205.16 505.922 201.2H501.922ZM504.122 213.614C505.663 217.33 507.76 220.574 510.42 223.326L513.295 220.546C511.006 218.178 509.178 215.364 507.817 212.082L504.122 213.614ZM510.443 223.35C513.198 226.105 516.414 228.217 520.075 229.681L521.56 225.967C518.394 224.701 515.637 222.887 513.272 220.522L510.443 223.35ZM520.075 229.681C523.745 231.149 527.712 231.872 531.953 231.872V227.872C528.174 227.872 524.717 227.23 521.56 225.967L520.075 229.681ZM596.562 246H594.562V248H596.562V246ZM596.562 156.4V154.4H594.562V156.4H596.562ZM656.081 160.368L655.252 162.188L655.263 162.193L655.274 162.198L656.081 160.368ZM669.521 171.504L667.844 172.593L669.521 171.504ZM669.521 206.192L671.19 207.295L671.195 207.288L671.199 207.281L669.521 206.192ZM656.081 217.2L656.889 219.03L656.081 217.2ZM608.081 221.04L606.677 219.616L603.205 223.04H608.081V221.04ZM617.297 211.952H619.297V207.171L615.893 210.528L617.297 211.952ZM617.297 246V248H619.297V246H617.297ZM653.521 246L651.875 247.135L652.471 248H653.521V246ZM631.122 213.488V211.488H627.315L629.475 214.623L631.122 213.488ZM653.266 213.488L654.906 212.345L654.31 211.488H653.266V213.488ZM675.922 246V248H679.753L677.562 244.857L675.922 246ZM617.297 214.256L615.846 215.631L619.297 219.275V214.256H617.297ZM608.081 204.528V202.528H603.432L606.63 205.903L608.081 204.528ZM648.529 200.432L649.838 201.945L649.849 201.935L649.861 201.925L648.529 200.432ZM608.081 173.296L606.621 171.93L603.473 175.296H608.081V173.296ZM617.297 163.44H619.297V158.373L615.837 162.074L617.297 163.44ZM598.562 246V156.4H594.562V246H598.562ZM596.562 158.4H635.346V154.4H596.562V158.4ZM635.346 158.4C643.152 158.4 649.768 159.688 655.252 162.188L656.911 158.548C650.79 155.758 643.582 154.4 635.346 154.4V158.4ZM655.274 162.198C660.756 164.616 664.918 168.086 667.844 172.593L671.199 170.415C667.81 165.194 663.013 161.24 656.889 158.538L655.274 162.198ZM667.844 172.593C670.758 177.083 672.258 182.493 672.258 188.912H676.258C676.258 181.848 674.599 175.653 671.199 170.415L667.844 172.593ZM672.258 188.912C672.258 195.24 670.761 200.609 667.844 205.103L671.199 207.281C674.597 202.047 676.258 195.896 676.258 188.912H672.258ZM667.853 205.089C664.929 209.514 660.765 212.948 655.274 215.37L656.889 219.03C663.003 216.332 667.799 212.427 671.19 207.295L667.853 205.089ZM655.274 215.37C649.784 217.792 643.16 219.04 635.346 219.04V223.04C643.574 223.04 650.774 221.728 656.889 219.03L655.274 215.37ZM635.346 219.04H608.081V223.04H635.346V219.04ZM609.486 222.464L618.702 213.376L615.893 210.528L606.677 219.616L609.486 222.464ZM615.297 211.952V246H619.297V211.952H615.297ZM617.297 244H596.562V248H617.297V244ZM655.168 244.865L632.768 212.353L629.475 214.623L651.875 247.135L655.168 244.865ZM631.122 215.488H653.266V211.488H631.122V215.488ZM651.625 214.631L674.281 247.143L677.562 244.857L654.906 212.345L651.625 214.631ZM675.922 244H653.521V248H675.922V244ZM618.749 212.881L609.533 203.153L606.63 205.903L615.846 215.631L618.749 212.881ZM608.081 206.528H634.193V202.528H608.081V206.528ZM634.193 206.528C640.828 206.528 646.167 205.12 649.838 201.945L647.221 198.919C644.578 201.205 640.359 202.528 634.193 202.528V206.528ZM649.861 201.925C653.509 198.671 655.266 194.252 655.266 188.912H651.266C651.266 193.3 649.865 196.561 647.198 198.939L649.861 201.925ZM655.266 188.912C655.266 183.501 653.517 179.061 649.838 175.879L647.221 178.905C649.857 181.184 651.266 184.425 651.266 188.912H655.266ZM649.838 175.879C646.167 172.704 640.828 171.296 634.193 171.296V175.296C640.359 175.296 644.578 176.619 647.221 178.905L649.838 175.879ZM634.193 171.296H608.081V175.296H634.193V171.296ZM609.542 174.662L618.758 164.806L615.837 162.074L606.621 171.93L609.542 174.662ZM615.297 163.44V214.256H619.297V163.44H615.297ZM709.758 192.496V190.496H707.758V192.496H709.758ZM752.895 192.496H754.895V190.496H752.895V192.496ZM752.895 208.624V210.624H754.895V208.624H752.895ZM709.758 208.624H707.758V210.624H709.758V208.624ZM711.294 229.36H709.294V231.36H711.294V229.36ZM760.062 229.36H762.062V227.36H760.062V229.36ZM760.062 246V248H762.062V246H760.062ZM690.687 246H688.687V248H690.687V246ZM690.687 156.4V154.4H688.687V156.4H690.687ZM758.398 156.4H760.398V154.4H758.398V156.4ZM758.398 173.04V175.04H760.398V173.04H758.398ZM711.294 173.04V171.04H709.294V173.04H711.294ZM709.758 194.496H752.895V190.496H709.758V194.496ZM750.895 192.496V208.624H754.895V192.496H750.895ZM752.895 206.624H709.758V210.624H752.895V206.624ZM711.758 208.624V192.496H707.758V208.624H711.758ZM711.294 231.36H760.062V227.36H711.294V231.36ZM758.062 229.36V246H762.062V229.36H758.062ZM760.062 244H690.687V248H760.062V244ZM692.687 246V156.4H688.687V246H692.687ZM690.687 158.4H758.398V154.4H690.687V158.4ZM756.398 156.4V173.04H760.398V156.4H756.398ZM758.398 171.04H711.294V175.04H758.398V171.04ZM709.294 173.04V229.36H713.294V173.04H709.294ZM785.393 244.72L784.821 246.636L784.833 246.64L784.844 246.643L785.393 244.72ZM769.521 237.168L767.698 236.346L767.047 237.792L768.305 238.756L769.521 237.168ZM776.562 221.552L777.721 219.922L775.738 218.512L774.738 220.73L776.562 221.552ZM790.13 228.336L789.478 230.227L789.497 230.233L789.516 230.239L790.13 228.336ZM815.985 229.744L816.578 231.654L816.598 231.648L816.618 231.641L815.985 229.744ZM821.617 226.288L820.074 225.017L821.617 226.288ZM820.594 215.664L819.371 217.247L819.394 217.264L819.417 217.281L820.594 215.664ZM813.169 212.208L812.585 214.121L812.61 214.128L812.634 214.135L813.169 212.208ZM802.93 209.648L802.477 211.596L802.503 211.602L802.529 211.607L802.93 209.648ZM791.794 206.576L791.174 208.478L791.187 208.482L791.794 206.576ZM781.682 201.968L780.639 203.675L781.682 201.968ZM774.13 194.544L772.423 195.587L772.433 195.604L772.444 195.621L774.13 194.544ZM775.409 168.816L773.74 167.714L773.735 167.722L775.409 168.816ZM787.953 158.704L788.768 160.531L788.781 160.525L787.953 158.704ZM825.714 156.912L825.228 158.852L825.243 158.856L825.257 158.859L825.714 156.912ZM840.177 162.8L842.03 163.553L842.66 162.004L841.247 161.11L840.177 162.8ZM833.777 178.544L832.785 180.28L834.77 181.414L835.63 179.297L833.777 178.544ZM821.234 173.296L820.684 175.219L820.702 175.224L820.721 175.229L821.234 173.296ZM799.089 172.912L798.401 171.034L799.089 172.912ZM793.586 176.624L795.174 177.839L795.191 177.817L795.207 177.795L793.586 176.624ZM794.737 187.376L793.515 188.959L793.538 188.976L793.561 188.993L794.737 187.376ZM802.161 190.704L801.626 192.631L802.161 190.704ZM812.273 193.264L811.82 195.212L811.83 195.214L812.273 193.264ZM823.409 196.208L822.831 198.122L822.843 198.126L823.409 196.208ZM833.65 200.688L834.692 198.981L833.65 200.688ZM841.073 208.112L839.367 209.155L839.377 209.172L839.388 209.189L841.073 208.112ZM839.793 233.584L841.452 234.701L839.793 233.584ZM827.122 243.696L826.294 241.875L826.283 241.88L827.122 243.696ZM806.002 245.536C799.01 245.536 792.326 244.621 785.943 242.797L784.844 246.643C791.602 248.574 798.657 249.536 806.002 249.536V245.536ZM785.966 242.804C779.55 240.887 774.5 238.462 770.738 235.58L768.305 238.756C772.564 242.018 778.095 244.627 784.821 246.636L785.966 242.804ZM771.345 237.99L778.385 222.374L774.738 220.73L767.698 236.346L771.345 237.99ZM775.402 223.182C779.422 226.04 784.122 228.383 789.478 230.227L790.781 226.445C785.727 224.705 781.381 222.525 777.721 219.922L775.402 223.182ZM789.516 230.239C794.998 232.008 800.538 232.896 806.13 232.896V228.896C800.969 228.896 795.843 228.077 790.744 226.433L789.516 230.239ZM806.13 232.896C810.324 232.896 813.834 232.506 816.578 231.654L815.393 227.834C813.188 228.518 810.127 228.896 806.13 228.896V232.896ZM816.618 231.641C819.387 230.718 821.645 229.4 823.161 227.559L820.074 225.017C819.201 226.077 817.704 227.063 815.353 227.847L816.618 231.641ZM823.161 227.559C824.651 225.751 825.409 223.638 825.409 221.296H821.409C821.409 222.709 820.974 223.924 820.074 225.017L823.161 227.559ZM825.409 221.296C825.409 218.289 824.182 215.801 821.77 214.047L819.417 217.281C820.759 218.258 821.409 219.524 821.409 221.296H825.409ZM821.816 214.081C819.677 212.428 816.945 211.181 813.705 210.281L812.634 214.135C815.538 214.942 817.755 215.998 819.371 217.247L821.816 214.081ZM813.754 210.295C810.611 209.335 807.135 208.467 803.33 207.689L802.529 211.607C806.233 212.365 809.584 213.204 812.585 214.121L813.754 210.295ZM803.383 207.7C799.767 206.859 796.106 205.849 792.4 204.67L791.187 208.482C794.99 209.692 798.753 210.73 802.477 211.596L803.383 207.7ZM792.413 204.674C788.881 203.524 785.654 202.052 782.724 200.261L780.639 203.675C783.853 205.639 787.367 207.238 791.174 208.478L792.413 204.674ZM782.724 200.261C779.915 198.545 777.616 196.287 775.815 193.467L772.444 195.621C774.568 198.945 777.304 201.637 780.639 203.675L782.724 200.261ZM775.836 193.501C774.204 190.83 773.313 187.296 773.313 182.768H769.313C769.313 187.797 770.301 192.114 772.423 195.587L775.836 193.501ZM773.313 182.768C773.313 178.026 774.571 173.757 777.084 169.91L773.735 167.722C770.786 172.238 769.313 177.27 769.313 182.768H773.313ZM777.079 169.918C779.648 166.025 783.503 162.879 788.768 160.53L787.139 156.878C781.31 159.478 776.803 163.074 773.74 167.714L777.079 169.918ZM788.781 160.525C794.077 158.118 800.813 156.864 809.073 156.864V152.864C800.438 152.864 793.094 154.17 787.126 156.883L788.781 160.525ZM809.073 156.864C814.542 156.864 819.926 157.527 825.228 158.852L826.199 154.972C820.579 153.567 814.869 152.864 809.073 152.864V156.864ZM825.257 158.859C830.53 160.095 835.139 161.979 839.108 164.49L841.247 161.11C836.854 158.33 831.82 156.289 826.17 154.965L825.257 158.859ZM838.325 162.047L831.925 177.791L835.63 179.297L842.03 163.553L838.325 162.047ZM834.77 176.808C830.455 174.342 826.113 172.521 821.746 171.363L820.721 175.229C824.717 176.289 828.738 177.968 832.785 180.28L834.77 176.808ZM821.783 171.373C817.438 170.132 813.157 169.504 808.945 169.504V173.504C812.755 173.504 816.666 174.071 820.684 175.219L821.783 171.373ZM808.945 169.504C804.8 169.504 801.259 169.986 798.401 171.034L799.778 174.79C802.04 173.96 805.069 173.504 808.945 173.504V169.504ZM798.401 171.034C795.623 172.053 793.389 173.481 791.964 175.453L795.207 177.795C796.001 176.695 797.436 175.649 799.778 174.79L798.401 171.034ZM791.997 175.409C790.6 177.235 789.922 179.377 789.922 181.744H793.922C793.922 180.186 794.352 178.914 795.174 177.839L791.997 175.409ZM789.922 181.744C789.922 184.689 791.164 187.142 793.515 188.959L795.96 185.793C794.556 184.708 793.922 183.407 793.922 181.744H789.922ZM793.561 188.993C795.689 190.541 798.404 191.736 801.626 192.631L802.697 188.777C799.775 187.965 797.54 186.941 795.914 185.759L793.561 188.993ZM801.626 192.631C804.73 193.493 808.128 194.353 811.82 195.212L812.727 191.316C809.08 190.468 805.737 189.622 802.697 188.777L801.626 192.631ZM811.83 195.214C815.54 196.057 819.206 197.027 822.831 198.122L823.988 194.294C820.274 193.171 816.517 192.177 812.717 191.314L811.83 195.214ZM822.843 198.126C826.445 199.19 829.696 200.616 832.607 202.395L834.692 198.981C831.459 197.006 827.884 195.444 823.976 194.29L822.843 198.126ZM832.607 202.395C835.408 204.106 837.655 206.354 839.367 209.155L842.78 207.069C840.737 203.726 838.035 201.024 834.692 198.981L832.607 202.395ZM839.388 209.189C841.094 211.859 842.017 215.34 842.017 219.76H846.017C846.017 214.793 844.978 210.509 842.759 207.035L839.388 209.189ZM842.017 219.76C842.017 224.396 840.729 228.615 838.135 232.467L841.452 234.701C844.49 230.19 846.017 225.193 846.017 219.76H842.017ZM838.135 232.467C835.568 236.278 831.666 239.434 826.294 241.875L827.949 245.517C833.841 242.838 838.387 239.252 841.452 234.701L838.135 232.467ZM826.283 241.88C821.082 244.281 814.353 245.536 806.002 245.536V249.536C814.717 249.536 822.068 248.231 827.96 245.512L826.283 241.88Z" fill="white"/>
</svg>
