<svg width="1920" height="1212" viewBox="0 0 1920 1212" fill="none" xmlns="http://www.w3.org/2000/svg">
<g clip-path="url(#clip0_101_198)">
<path d="M361.504 959.756L361.679 960.871L362.387 959.993L484.135 809.129L414.357 989.997L413.95 991.05L415.003 990.643L595.871 920.865L445.007 1042.61L444.129 1043.32L445.244 1043.5L636.769 1073.5L445.244 1103.5L444.129 1103.68L445.007 1104.39L595.871 1226.13L415.003 1156.36L413.95 1155.95L414.357 1157L484.135 1337.87L362.387 1187.01L361.679 1186.13L361.504 1187.24L331.5 1378.77L301.496 1187.24L301.321 1186.13L300.613 1187.01L178.865 1337.87L248.643 1157L249.05 1155.95L247.997 1156.36L67.1289 1226.13L217.993 1104.39L218.871 1103.68L217.756 1103.5L26.2306 1073.5L217.756 1043.5L218.871 1043.32L217.993 1042.61L67.1289 920.865L247.997 990.643L249.05 991.05L248.643 989.997L178.865 809.129L300.613 959.993L301.321 960.871L301.496 959.756L331.5 768.231L361.504 959.756Z" stroke="#FF8D32"/>
<path d="M-120 455.573C-871.393 455.573 -1571.24 732.699 -2158.11 1209.82C-1693.43 433.709 -953.526 -68.5 -120 -68.5C713.528 -68.5 1453.43 433.523 1918.11 1209.82C1331.24 732.7 631.53 455.573 -120 455.573Z" stroke="#FF8D32"/>
</g>
<defs>
<clipPath id="clip0_101_198">
<rect width="1920" height="1212" fill="white"/>
</clipPath>
</defs>
</svg>
