<svg width="467" height="471" viewBox="0 0 467 471" fill="none" xmlns="http://www.w3.org/2000/svg">
  <path d="M261.324 42.2849L296.602 10.7384L310.404 56.0768L310.863 57.5888L312.278 56.894L354.736 36.0637L355.827 83.4551L355.865 85.0356L357.413 84.7498L403.899 76.1802L392.202 122.11L391.812 123.641L393.382 123.786L440.451 128.113L416.832 169.174L416.044 170.544L417.517 171.107L461.675 188.01L427.886 221.158L426.76 222.263L428.026 223.204L466 251.429L424.547 274.204L423.165 274.965L424.133 276.213L453.105 313.666L407.063 324.381L405.528 324.739L406.122 326.203L423.945 370.108L376.728 367.967L375.156 367.895L375.333 369.466L380.686 416.564L335.797 401.727L334.3 401.233L334.05 402.792L326.533 449.592L287.298 423.159L285.992 422.277L285.33 423.711L265.503 466.743L234.836 430.673L233.813 429.471L232.79 430.673L202.123 466.743L182.296 423.711L181.634 422.277L180.326 423.159L141.093 449.592L133.577 402.792L133.326 401.233L131.829 401.727L86.9397 416.564L92.2917 369.466L92.4702 367.895L90.8954 367.967L43.6794 370.108L61.5026 326.203L62.0972 324.739L60.5617 324.381L14.5206 313.666L43.4931 276.213L44.4593 274.965L43.077 274.204L1.62549 251.429L39.5987 223.204L40.8651 222.263L39.7382 221.158L5.95068 188.01L50.1081 171.107L51.581 170.544L50.7934 169.174L27.1754 128.113L74.2422 123.786L75.8119 123.641L75.4218 122.11L63.7255 76.1802L110.211 84.7498L111.761 85.0356L111.798 83.4551L112.89 36.0637L155.347 56.894L156.763 57.5888L157.223 56.0768L171.023 10.7384L206.302 42.2849L207.478 43.337L208.328 42.0053L233.813 2.08264L259.297 42.0053L260.147 43.337L261.324 42.2849Z" stroke="#FFB76D" />
  <path d="M282.613 50.0923L283.018 50.4237L283.54 50.394L360.301 46.0469L379.898 120.61L380.032 121.117L380.471 121.4L445.12 163.136L417.275 235.012L417.087 235.501L417.275 235.989L445.12 307.867L380.471 349.601L380.032 349.884L379.898 350.391L360.301 424.955L283.54 420.606L283.018 420.579L282.613 420.908L223.06 469.677L163.506 420.908L163.102 420.579L162.58 420.606L85.8192 424.955L66.2207 350.391L66.0877 349.884L65.6487 349.601L1 307.867L28.8427 235.989L29.0316 235.501L28.8427 235.012L1 163.136L65.6487 121.4L66.0877 121.117L66.2207 120.61L85.8192 46.0469L162.58 50.394L163.102 50.4237L163.506 50.0923L223.06 1.3231L282.613 50.0923Z" stroke="#FFB76D" />
  <path d="M330.794 66.8356L330.875 66.8885L330.958 66.93L436.118 118.355L427.943 235.406L427.935 235.5L427.943 235.595L436.118 352.645L330.958 404.07L330.875 404.113L330.794 404.164L233.813 469.792L136.829 404.164L136.751 404.113L136.667 404.07L31.5081 352.645L39.6836 235.595L39.69 235.5L39.6836 235.406L31.5081 118.355L136.667 66.93L136.751 66.8885L136.829 66.8356L233.813 1.20886L330.794 66.8356Z" stroke="#FFB76D" />
  <path d="M250.315 40.7271L270.018 6.23513L278.128 45.1454L278.709 47.9357L280.491 45.7143L305.331 14.7382L307.272 54.4419L307.412 57.2893L309.519 55.3748L338.883 28.6772L334.609 68.1968L334.302 71.0311L336.681 69.4702L369.849 47.7089L359.462 86.0713L358.717 88.8225L361.311 87.6543L397.465 71.3646L381.223 107.625L380.059 110.226L382.801 109.478L421.05 99.0619L399.353 132.328L397.796 134.713L400.624 134.406L440.026 130.119L413.407 159.571L411.498 161.683L414.337 161.823L453.924 163.771L423.039 188.683L420.824 190.47L423.606 191.053L462.403 199.188L428.012 218.949L425.544 220.366L428.203 221.379L465.253 235.5L428.203 249.622L425.544 250.635L428.012 252.052L462.403 271.813L423.606 279.947L420.824 280.53L423.039 282.317L453.924 307.23L414.337 309.177L411.498 309.317L413.407 311.431L440.026 340.881L400.624 336.594L397.796 336.287L399.353 338.673L421.05 371.939L382.801 361.521L380.059 360.774L381.223 363.376L397.465 399.637L361.311 383.347L358.717 382.179L359.462 384.929L369.849 423.291L336.681 401.53L334.302 399.969L334.609 402.805L338.883 442.323L309.519 415.626L307.412 413.711L307.272 416.558L305.331 456.263L280.491 425.286L278.709 423.064L278.128 425.855L270.018 464.767L250.315 430.274L248.902 427.799L247.892 430.466L233.812 467.625L219.732 430.466L218.723 427.799L217.31 430.274L197.608 464.767L189.496 425.855L188.915 423.064L187.134 425.286L162.294 456.263L160.352 416.558L160.213 413.711L158.107 415.626L128.741 442.323L133.016 402.805L133.322 399.969L130.944 401.53L97.7761 423.291L108.162 384.929L108.907 382.179L106.314 383.347L70.1604 399.637L86.4021 363.376L87.5669 360.774L84.8238 361.521L46.5745 371.939L68.2717 338.673L69.8279 336.287L67.002 336.594L27.5989 340.881L54.2177 311.431L56.1267 309.317L53.2876 309.177L13.701 307.23L44.5857 282.317L46.8006 280.53L44.0185 279.947L5.22293 271.813L39.6132 252.052L42.0797 250.635L39.4226 249.622L2.37354 235.5L39.4226 221.379L42.0797 220.366L39.6132 218.949L5.22293 199.188L44.0185 191.053L46.8006 190.47L44.5857 188.683L13.701 163.771L53.2876 161.823L56.1267 161.683L54.2177 159.571L27.5989 130.119L67.002 134.406L69.8279 134.713L68.2717 132.328L46.5745 99.0619L84.8238 109.478L87.5669 110.226L86.4021 107.625L70.1604 71.3646L106.314 87.6543L108.907 88.8225L108.162 86.0713L97.7761 47.7089L130.944 69.4702L133.322 71.0311L133.016 68.1968L128.741 28.6772L158.107 55.3748L160.213 57.2893L160.352 54.4419L162.294 14.7382L187.134 45.7143L188.915 47.9357L189.496 45.1454L197.608 6.23513L217.31 40.7271L218.723 43.2009L219.732 40.5359L233.812 3.37732L247.892 40.5359L248.902 43.2009L250.315 40.7271Z" stroke="#FFB76D" />
  <path d="M11.6829 163.113L233.813 1.24902L455.943 163.113L371.097 425.014H96.529L11.6829 163.113Z" stroke="#FFB76D" />
  <path d="M31.448 118.32L233.812 1.13928L436.176 118.32V352.68L233.812 469.863L31.448 352.68V118.32Z" stroke="#FFB76D" />
  <path d="M96.3832 45.7855L233.813 1L371.242 45.7855L456.177 163.036V307.966L371.242 425.216L233.813 470L96.3832 425.216L11.447 307.966V163.036L96.3832 45.7855Z" stroke="#FFB76D" />
</svg>
