<svg width="32" height="16" viewBox="0 0 32 16" fill="none" xmlns="http://www.w3.org/2000/svg">
  <path d="M16.558 15.6651V6.80931H14.772V4.46512H16.558V1.60001H19.1627V4.46512H21.2464V6.80931H19.1627V15.6651H16.558Z" fill="#111827" />
  <path d="M11.386 15.5535C10.1953 15.814 9.11625 15.814 8.1488 15.5535C7.14415 15.293 6.32553 14.7721 5.61855 14.0651C4.94879 13.3209 4.46509 12.4279 4.20463 11.3488C3.94416 10.2326 3.94416 9.1535 4.20463 8.18605C4.46509 7.21861 4.98602 6.36281 5.693 5.69304C6.39998 4.98606 7.33018 4.53954 8.40925 4.27908C9.37669 4.05582 10.3069 4.09304 11.1999 4.39071C12.093 4.68839 12.8371 5.1721 13.4697 5.91628C14.1023 6.62326 14.5116 7.51629 14.7348 8.55815L14.9209 9.45117L7.06972 11.2744C7.40461 12.0186 7.92552 12.5768 8.6325 12.8744C9.33947 13.1721 10.1581 13.2465 11.0883 13.0233C11.5721 12.9116 12.0186 12.7256 12.3907 12.4651C12.7628 12.2047 13.1349 11.8326 13.507 11.3488L15.3302 12.9489C14.8465 13.6186 14.2883 14.1768 13.5814 14.6233C12.8744 15.0698 12.1302 15.3675 11.386 15.5535ZM9.00459 6.69768C7.4418 7.06978 6.66042 8.00001 6.69763 9.45117L11.8697 8.26048L11.8325 8.18605C11.6465 7.59071 11.3116 7.1814 10.7535 6.88373C10.2325 6.58605 9.63715 6.54885 9.00459 6.69768Z" fill="#111827" />
  <path d="M27.1256 15.6651C26.0837 15.6651 25.1535 15.4791 24.3349 15.1442C23.5163 14.8093 22.8465 14.3256 22.3628 13.693L24.2233 12.1675C24.6698 12.614 25.1535 12.9488 25.6744 13.1721C26.2326 13.3581 26.7907 13.4698 27.3488 13.4698C27.7954 13.4698 28.1675 13.3581 28.4279 13.1721C28.6884 12.986 28.8372 12.6884 28.8372 12.3535C28.8372 12.0558 28.7256 11.7954 28.4651 11.6093C28.2047 11.4233 27.5721 11.2372 26.6047 10.9767C25.1535 10.6047 24.1116 10.1209 23.5163 9.48838C22.9953 8.93024 22.7349 8.22326 22.7349 7.40465C22.7349 6.73489 22.9209 6.17675 23.3302 5.65582C23.7395 5.1721 24.2605 4.7628 24.9302 4.46512C25.6 4.16745 26.307 4.05582 27.0884 4.05582C27.9814 4.05582 28.8372 4.20466 29.6186 4.50233C30.4 4.80001 31.0698 5.24652 31.5907 5.76745L29.9907 7.47908C29.5814 7.10698 29.1349 6.80931 28.614 6.54884C28.093 6.28838 27.6093 6.17675 27.1628 6.17675C26.1209 6.17675 25.6 6.51163 25.6 7.21861C25.6 7.55349 25.786 7.81396 26.0837 8.03722C26.3814 8.22326 27.014 8.48373 28.0558 8.74419C29.4326 9.07907 30.4 9.5628 30.9581 10.1209C31.4419 10.6047 31.7023 11.2744 31.7023 12.093C31.7023 12.7628 31.5163 13.3581 31.107 13.9163C30.6977 14.4372 30.1768 14.8837 29.507 15.1814C28.7256 15.5163 27.9814 15.6651 27.1256 15.6651Z" fill="#111827" />
  <path d="M22.9209 1.45117C23.293 1.45117 23.5906 1.5628 23.8511 1.86048C24.1116 2.12094 24.2232 2.49304 24.2232 2.90234C24.2232 3.23723 24.1488 3.5349 24 3.83258C23.8511 4.13025 23.6278 4.39071 23.3302 4.65117C23.0325 4.87443 22.7348 5.06047 22.3627 5.1721L21.8418 4.53955C22.1767 4.39071 22.4372 4.20467 22.6604 4.01862C22.8465 3.79537 22.9581 3.64652 22.9581 3.49768C22.9581 3.38606 22.9209 3.31164 22.8465 3.23723C22.7721 3.16281 22.6976 3.08839 22.586 3.01397C22.3999 2.86513 22.2883 2.7535 22.2139 2.64187C22.1395 2.53025 22.1023 2.41862 22.1023 2.26978C22.1023 2.04653 22.1767 1.86048 22.3255 1.71164C22.4372 1.5256 22.6604 1.45117 22.9209 1.45117Z" fill="#9B0B42" />
  <path d="M2.8651 0H0V15.7395H2.8651V0Z" fill="#111827" />
</svg>
