<svg width="206" height="108" viewBox="0 0 206 108" fill="none" xmlns="http://www.w3.org/2000/svg">
  <rect width="206" height="108" fill="black" />
  <path d="M84.9297 63.1C85.3061 63.1038 85.682 63.0703 86.0518 63V68.419C85.4246 68.524 84.7893 68.5729 84.1534 68.565C80.6902 68.565 73.8128 67.54 73.8128 59.192V48.747H70.5934V43.816H73.9587V36.64H80.0077V43.816H85.6661V48.747H80.0077V58.413C80.0037 62.514 83.2221 63.1 84.9297 63.1ZM61.6097 58.413V48.747H67.2681V43.816H61.6097V36.64H55.5647V43.816H52.1984V48.747H55.4148V59.194C55.4148 67.542 62.2922 68.567 65.7564 68.567C66.3922 68.5749 67.0276 68.526 67.6548 68.421V63.002C67.285 63.0724 66.9091 63.1059 66.5327 63.102C64.8321 63.1 61.6097 62.514 61.6097 58.413ZM165.562 54.654C165.562 55.386 165.416 57.046 165.416 57.046H148.248C148.638 61.391 152.004 63.637 155.711 63.637C158.331 63.5149 160.844 62.5568 162.881 60.903L165.271 65.345C162.459 67.6705 158.919 68.9321 155.271 68.909C147.027 68.909 141.905 62.953 141.905 55.875C141.905 48.21 147.125 42.84 154.54 42.84C161.711 42.84 165.565 48.064 165.565 54.654H165.562ZM159.318 52.799C159.218 49.43 157.12 47.624 154.391 47.624C152.93 47.5762 151.505 48.083 150.401 49.0427C149.297 50.0024 148.597 51.3442 148.44 52.799H159.318ZM49.3657 55.875C49.3657 63.539 43.2707 68.909 35.7068 68.909C28.097 68.909 22 63.539 22 55.875C22 48.259 28.095 42.84 35.6579 42.84C43.2707 42.84 49.3687 48.259 49.3687 55.875H49.3657ZM43.0708 55.875C43 54.4278 42.5062 53.0332 41.6507 51.8642C40.7951 50.6953 39.6155 49.8035 38.2582 49.2993C36.9008 48.7952 35.4255 48.701 34.0151 49.0284C32.6048 49.3558 31.3215 50.0903 30.3244 51.141C29.3274 52.1916 28.6605 53.5121 28.4064 54.9386C28.1524 56.3651 28.3224 57.8348 28.8954 59.1655C29.4683 60.4962 30.419 61.6293 31.6295 62.4241C32.84 63.219 34.257 63.6408 35.7048 63.637C36.7039 63.6309 37.6914 63.423 38.6082 63.0259C39.525 62.6287 40.3523 62.0504 41.0406 61.3257C41.7288 60.6009 42.2638 59.7446 42.6135 58.808C42.9633 57.8715 43.1205 56.8739 43.0758 55.875H43.0708ZM182.877 63.1C181.169 63.1 177.95 62.514 177.95 58.413V48.747H183.61V43.816H177.955V36.64H171.907V43.816H168.541V48.747H171.76V59.194C171.76 67.542 178.637 68.567 182.102 68.567C182.737 68.5749 183.373 68.526 184 68.421V63.002C183.631 63.0714 183.257 63.1042 182.882 63.1H182.877ZM126.585 50.358C126.585 48.796 128.146 48.112 129.755 48.112C131.976 48.0887 134.134 48.8492 135.85 50.26L138.147 45.669C138.147 45.669 135.416 42.838 129.806 42.838C124.441 42.838 120.294 45.523 120.294 50.161C120.294 58.168 132.391 57.679 132.391 61.39C132.391 62.854 130.879 63.636 129.123 63.636C126.607 63.5755 124.198 62.6041 122.342 60.902L119.513 65.247C122.144 67.6619 125.601 68.9725 129.171 68.908C135.073 68.908 138.683 65.588 138.683 61.439C138.687 53.434 126.589 53.869 126.589 50.358H126.585ZM116.633 55.875C116.633 63.539 110.538 68.909 102.975 68.909C95.3652 68.909 89.2672 63.539 89.2672 55.875C89.2672 48.259 95.3622 42.84 102.926 42.84C110.54 42.84 116.637 48.259 116.637 55.875H116.633ZM110.338 55.875C110.267 54.4276 109.773 53.0329 108.918 51.8638C108.062 50.6948 106.882 49.803 105.524 49.299C104.167 48.795 102.691 48.701 101.281 49.0287C99.8704 49.3565 98.5871 50.0914 97.5902 51.1424C96.5934 52.1935 95.9268 53.5143 95.6732 54.9411C95.4196 56.3678 95.5902 57.8377 96.1637 59.1683C96.7373 60.4989 97.6886 61.6317 98.8996 62.4261C100.111 63.2205 101.528 63.6415 102.976 63.637C103.975 63.6306 104.962 63.4225 105.879 63.0253C106.795 62.628 107.622 62.0497 108.31 61.325C108.998 60.6003 109.533 59.744 109.883 58.8076C110.232 57.8711 110.39 56.8737 110.345 55.875H110.338Z" fill="white" />
  <path d="M127.419 31.986C114.377 31.9335 101.562 35.4078 90.3294 42.042C98.7775 31.696 112.247 25 127.419 25C142.592 25 156.06 31.7 164.509 42.042C153.276 35.4079 140.462 31.9335 127.419 31.986ZM53.8721 83.243H61.7207V81.972H55.3359V78.781H61.7207V77.51H55.3359V74.65H61.7207V73.379H53.8721V83.243ZM78.7148 81.226H78.6868L72.351 73.379H70.6524V83.244H72.1152V75.396H72.1432L78.479 83.244H80.1776V73.379H78.7148V81.226ZM89.1064 83.243H96.955V81.972H90.5702V78.781H96.955V77.51H90.5702V74.65H96.955V73.379H89.1064V83.243ZM113.035 78.969L114.624 83.243H113.161L111.689 79.281C111.601 79.281 111.513 79.291 111.422 79.291H107.352V83.242H105.89V73.377H111.325C113.492 73.377 114.623 74.372 114.623 76.21C114.665 76.7759 114.537 77.3415 114.255 77.8336C113.972 78.3257 113.549 78.7216 113.039 78.97L113.035 78.969ZM113.16 76.238C113.176 76.0179 113.143 75.797 113.064 75.5912C112.984 75.3853 112.86 75.1997 112.7 75.0477C112.54 74.8957 112.349 74.7811 112.139 74.7121C111.93 74.6432 111.708 74.6216 111.489 74.649H107.351V78.02H111.226C112.681 78.021 113.164 77.231 113.164 76.239L113.16 76.238ZM129.313 79.194H132.543C132.454 80.0838 132.015 80.9019 131.325 81.469C130.634 82.0362 129.746 82.3062 128.857 82.22C128.338 82.2698 127.815 82.2038 127.325 82.0266C126.834 81.8493 126.39 81.5654 126.022 81.1952C125.655 80.825 125.375 80.3779 125.201 79.886C125.028 79.3941 124.966 78.8699 125.019 78.351C125.019 76.251 126.179 74.4 128.788 74.4C130.665 74.4 131.674 75.1 132.129 76.486H133.675C133.054 73.778 130.734 73.129 128.719 73.129C126.165 73.129 123.556 74.663 123.556 78.476C123.523 79.1601 123.637 79.8434 123.889 80.48C124.142 81.1166 124.527 81.6918 125.02 82.1668C125.513 82.6419 126.102 83.0058 126.747 83.2342C127.393 83.4626 128.079 83.5502 128.761 83.491C129.492 83.5066 130.219 83.3704 130.895 83.091C131.544 82.8116 132.118 82.3842 132.572 81.843V83.243H133.842V77.924H129.314L129.313 79.194ZM147.078 77.868L143.862 73.378H141.998L146.32 79.178V83.24H147.784V79.109L152.132 73.375H150.351L147.078 77.868Z" fill="white" />
</svg>
